<svg xmlns="http://www.w3.org/2000/svg" width="960" height="420" viewBox="0 0 960 420" role="img"><rect width="960" height="420" fill="#fbfaf5"/><text x="72" y="48" font-size="24" font-weight="700" fill="#1f2430">Excess Bills Stock vs 10Y Term Premium Proxy</text><text x="72" y="66" font-size="13" fill="#1f2430">Overlay shown in standardized units from 2009 onward to compare timing, not absolute levels.</text><rect x="72" y="18" width="14" height="14" fill="#1d3557"/><text x="94" y="30" font-size="13" fill="#1f2430">Excess Bills Stock (standardized)</text><rect x="352" y="18" width="14" height="14" fill="#c8553d"/><text x="374" y="30" font-size="13" fill="#1f2430">10Y term premium proxy (standardized)</text><line x1="72" y1="368" x2="932" y2="368" stroke="#1f2430" stroke-width="1.2"/><line x1="72" y1="72" x2="72" y2="368" stroke="#1f2430" stroke-width="1.2"/><line x1="72" y1="368.00" x2="932" y2="368.00" stroke="#d7d2c6" stroke-width="1"/><text x="64" y="372.00" text-anchor="end" font-size="12" fill="#1f2430">-2.3z</text><line x1="72" y1="294.00" x2="932" y2="294.00" stroke="#d7d2c6" stroke-width="1"/><text x="64" y="298.00" text-anchor="end" font-size="12" fill="#1f2430">-1.1z</text><line x1="72" y1="220.00" x2="932" y2="220.00" stroke="#d7d2c6" stroke-width="1"/><text x="64" y="224.00" text-anchor="end" font-size="12" fill="#1f2430">0.1z</text><line x1="72" y1="146.00" x2="932" y2="146.00" stroke="#d7d2c6" stroke-width="1"/><text x="64" y="150.00" text-anchor="end" font-size="12" fill="#1f2430">1.3z</text><line x1="72" y1="72.00" x2="932" y2="72.00" stroke="#d7d2c6" stroke-width="1"/><text x="64" y="76.00" text-anchor="end" font-size="12" fill="#1f2430">2.4z</text><line x1="72.00" y1="72" x2="72.00" y2="368" stroke="#d7d2c6" stroke-width="1"/><text x="72.00" y="402" text-anchor="middle" font-size="12" fill="#1f2430">2009-01</text><line x1="284.91" y1="72" x2="284.91" y2="368" stroke="#d7d2c6" stroke-width="1"/><text x="284.91" y="402" text-anchor="middle" font-size="12" fill="#1f2430">2013-04</text><line x1="497.83" y1="72" x2="497.83" y2="368" stroke="#d7d2c6" stroke-width="1"/><text x="497.83" y="402" text-anchor="middle" font-size="12" fill="#1f2430">2017-07</text><line x1="710.74" y1="72" x2="710.74" y2="368" stroke="#d7d2c6" stroke-width="1"/><text x="710.74" y="402" text-anchor="middle" font-size="12" fill="#1f2430">2021-10</text><line x1="932.00" y1="72" x2="932.00" y2="368" stroke="#d7d2c6" stroke-width="1"/><text x="932.00" y="402" text-anchor="middle" font-size="12" fill="#1f2430">2026-03</text><polyline fill="none" stroke="#1d3557" stroke-width="2.8" points="72.00,155.18 76.17,143.11 80.35,142.91 84.52,147.79 88.70,143.09 92.87,150.63 97.05,152.07 101.22,150.36 105.40,158.01 109.57,168.62 113.75,172.83 117.92,179.28 122.10,187.55 126.27,186.28 130.45,182.49 134.62,184.38 138.80,184.58 142.97,193.12 147.15,193.62 151.32,194.10 155.50,198.76 159.67,201.18 163.84,203.77 168.02,205.81 172.19,208.42 176.37,211.62 180.54,216.39 184.72,221.63 188.89,228.76 193.07,233.94 197.24,237.98 201.42,240.13 205.59,243.11 209.77,244.57 213.94,244.03 218.12,244.25 222.29,245.88 226.47,240.92 230.64,237.20 234.82,243.43 238.99,245.45 243.17,246.79 247.34,249.45 251.51,244.69 255.69,248.64 259.86,250.26 264.04,246.22 268.21,252.23 272.39,255.01 276.56,246.44 280.74,243.61 284.91,252.19 289.09,259.48 293.26,262.64 297.44,265.22 301.61,259.74 305.79,269.22 309.96,269.46 314.14,264.40 318.31,268.11 322.49,276.58 326.66,268.42 330.83,267.07 335.01,281.88 339.18,283.24 343.36,289.06 347.53,288.38 351.71,286.04 355.88,290.34 360.06,291.14 364.23,289.82 368.41,289.77 372.58,293.11 376.76,289.28 380.93,289.99 385.11,293.90 389.28,293.35 393.46,298.20 397.63,295.90 401.81,297.80 405.98,303.61 410.16,310.16 414.33,295.01 418.50,295.63 422.68,298.46 426.85,294.00 431.03,290.37 435.20,296.81 439.38,297.67 443.55,299.63 447.73,296.99 451.90,291.45 456.08,291.20 460.25,283.75 464.43,275.74 468.60,280.49 472.78,284.43 476.95,285.75 481.13,286.46 485.30,287.50 489.48,287.48 493.65,290.49 497.83,287.83 502.00,289.21 506.17,286.20 510.35,282.69 514.52,275.30 518.70,277.26 522.87,276.84 527.05,269.80 531.22,255.73 535.40,264.61 539.57,264.71 543.75,267.62 547.92,265.08 552.10,256.79 556.27,265.14 560.45,264.82 564.62,256.65 568.80,261.79 572.97,265.35 577.15,259.30 581.32,254.68 585.50,262.07 589.67,265.60 593.84,274.34 598.02,278.80 602.19,270.69 606.37,269.93 610.54,265.69 614.72,262.36 618.89,271.69 623.07,273.36 627.24,262.61 631.42,258.39 635.59,163.66 639.77,120.25 643.94,91.90 648.12,93.54 652.29,96.58 656.47,103.57 660.64,108.37 664.82,115.86 668.99,118.57 673.17,120.43 677.34,130.41 681.51,150.38 685.69,162.58 689.86,176.10 694.04,189.84 698.21,200.69 702.39,213.30 706.56,240.44 710.74,232.47 714.91,241.58 719.09,246.67 723.26,235.29 727.44,231.48 731.61,243.77 735.79,252.00 739.96,266.20 744.14,279.13 748.31,280.58 752.49,267.42 756.66,274.66 760.83,273.58 765.01,264.24 769.18,273.91 773.36,255.99 777.53,248.13 781.71,248.73 785.88,258.12 790.06,254.40 794.23,222.21 798.41,199.89 802.58,178.97 806.76,167.17 810.93,154.07 815.11,139.76 819.28,140.91 823.46,134.05 827.63,118.90 831.81,116.50 835.98,132.92 840.16,134.84 844.33,143.68 848.50,135.58 852.68,121.43 856.85,133.59 861.03,121.95 865.20,108.04 869.38,126.45 873.55,113.49 877.73,116.22 881.90,133.88 886.08,141.99 890.25,147.11 894.43,167.08 898.60,153.65 902.78,128.23 906.95,130.59 911.13,118.07 915.30,109.93 919.48,126.27 923.65,123.25 927.83,109.12 932.00,109.12"/><polyline fill="none" stroke="#c8553d" stroke-width="2.8" points="72.00,141.06 76.17,133.65 80.35,172.74 84.52,130.92 88.70,94.56 92.87,89.03 97.05,86.24 101.22,99.56 105.40,110.79 109.57,102.37 113.75,128.20 117.92,72.00 122.10,93.30 126.27,96.49 130.45,79.29 134.62,93.53 138.80,126.44 142.97,158.02 147.15,167.62 151.32,206.84 155.50,208.52 159.67,203.42 163.84,185.03 168.02,132.57 172.19,132.10 176.37,122.82 180.54,115.39 184.72,130.94 188.89,159.80 193.07,151.91 197.24,184.42 201.42,237.09 205.59,253.36 209.77,233.87 213.94,248.99 218.12,261.17 222.29,271.48 226.47,261.56 230.64,238.29 234.82,263.89 238.99,290.24 243.17,287.43 247.34,299.89 251.51,294.21 255.69,291.92 259.86,283.04 264.04,293.24 268.21,280.00 272.39,259.40 276.56,271.23 280.74,272.01 284.91,285.55 289.09,243.22 293.26,206.15 297.44,199.53 301.61,178.77 305.79,195.13 309.96,205.12 314.14,191.46 318.31,160.96 322.49,187.34 326.66,190.28 330.83,177.59 335.01,180.74 339.18,200.53 343.36,193.34 347.53,186.14 351.71,202.81 355.88,186.14 360.06,202.86 364.23,215.48 368.41,213.85 372.58,255.92 376.76,227.38 380.93,238.57 385.11,229.65 389.28,220.93 393.46,202.89 397.63,217.23 401.81,219.24 405.98,231.23 410.16,223.29 414.33,219.95 418.50,214.39 422.68,251.73 426.85,268.23 431.03,263.51 435.20,259.40 439.38,258.84 443.55,290.77 447.73,291.35 451.90,281.62 456.08,281.23 460.25,262.15 464.43,215.23 468.60,205.31 472.78,207.84 476.95,215.70 481.13,221.88 485.30,235.52 489.48,247.16 493.65,243.04 497.83,244.39 502.00,257.39 506.17,241.94 510.35,238.12 514.52,239.07 518.70,240.02 522.87,214.95 527.05,207.18 531.22,221.46 535.40,205.80 539.57,219.29 543.75,217.26 547.92,211.01 552.10,223.85 556.27,209.07 560.45,208.01 564.62,220.96 568.80,252.24 572.97,257.48 577.15,251.86 581.32,277.94 585.50,269.57 589.67,298.68 593.84,305.02 598.02,300.34 602.19,340.87 606.37,321.58 610.54,309.89 614.72,303.18 618.89,291.67 623.07,326.92 627.24,353.08 631.42,346.94 635.59,355.04 639.77,358.58 643.94,361.09 648.12,368.00 652.29,356.54 656.47,359.81 660.64,344.31 664.82,344.96 668.99,341.05 673.17,327.63 677.34,290.52 681.51,266.71 685.69,274.22 689.86,279.71 694.04,284.85 698.21,305.02 702.39,299.36 706.56,277.63 710.74,267.83 714.91,274.16 719.09,270.27 723.26,248.52 727.44,247.74 731.61,207.34 735.79,171.79 739.96,187.12 744.14,195.88 748.31,251.46 752.49,220.32 756.66,174.63 760.83,176.53 765.01,227.34 769.18,213.97 773.36,256.26 777.53,217.64 781.71,255.43 785.88,271.05 790.06,263.59 794.23,243.57 798.41,236.21 802.58,226.21 806.76,182.42 810.93,156.99 815.11,203.20 819.28,245.27 823.46,232.11 827.63,209.09 831.81,215.12 835.98,173.27 840.16,187.11 844.33,205.48 848.50,224.00 852.68,235.91 856.85,228.19 861.03,179.27 865.20,185.93 869.38,146.34 873.55,146.94 877.73,176.39 881.90,177.64 886.08,188.24 890.25,168.88 894.43,184.03 898.60,173.09 902.78,181.97 906.95,176.92 911.13,177.85 915.30,185.63 919.48,165.64 923.65,158.37 927.83,183.64 932.00,156.08"/></svg>