<svg xmlns="http://www.w3.org/2000/svg" width="960" height="420" viewBox="0 0 960 420" role="img"><rect width="960" height="420" fill="#fbfaf5"/><text x="72" y="48" font-size="24" font-weight="700" fill="#1f2430">Excess Bills Stock vs 10Y Term Premium Proxy</text><text x="72" y="66" font-size="13" fill="#1f2430">Overlay shown in standardized units from 2009 onward to compare timing, not absolute levels.</text><rect x="72" y="18" width="14" height="14" fill="#1d3557"/><text x="94" y="30" font-size="13" fill="#1f2430">Excess Bills Stock (standardized)</text><rect x="352" y="18" width="14" height="14" fill="#c8553d"/><text x="374" y="30" font-size="13" fill="#1f2430">10Y term premium proxy (standardized)</text><line x1="72" y1="368" x2="932" y2="368" stroke="#1f2430" stroke-width="1.2"/><line x1="72" y1="72" x2="72" y2="368" stroke="#1f2430" stroke-width="1.2"/><line x1="72" y1="368.00" x2="932" y2="368.00" stroke="#d7d2c6" stroke-width="1"/><text x="64" y="372.00" text-anchor="end" font-size="12" fill="#1f2430">-2.3z</text><line x1="72" y1="294.00" x2="932" y2="294.00" stroke="#d7d2c6" stroke-width="1"/><text x="64" y="298.00" text-anchor="end" font-size="12" fill="#1f2430">-1.1z</text><line x1="72" y1="220.00" x2="932" y2="220.00" stroke="#d7d2c6" stroke-width="1"/><text x="64" y="224.00" text-anchor="end" font-size="12" fill="#1f2430">0.1z</text><line x1="72" y1="146.00" x2="932" y2="146.00" stroke="#d7d2c6" stroke-width="1"/><text x="64" y="150.00" text-anchor="end" font-size="12" fill="#1f2430">1.3z</text><line x1="72" y1="72.00" x2="932" y2="72.00" stroke="#d7d2c6" stroke-width="1"/><text x="64" y="76.00" text-anchor="end" font-size="12" fill="#1f2430">2.5z</text><line x1="72.00" y1="72" x2="72.00" y2="368" stroke="#d7d2c6" stroke-width="1"/><text x="72.00" y="402" text-anchor="middle" font-size="12" fill="#1f2430">2009-01</text><line x1="285.95" y1="72" x2="285.95" y2="368" stroke="#d7d2c6" stroke-width="1"/><text x="285.95" y="402" text-anchor="middle" font-size="12" fill="#1f2430">2013-04</text><line x1="499.90" y1="72" x2="499.90" y2="368" stroke="#d7d2c6" stroke-width="1"/><text x="499.90" y="402" text-anchor="middle" font-size="12" fill="#1f2430">2017-07</text><line x1="713.85" y1="72" x2="713.85" y2="368" stroke="#d7d2c6" stroke-width="1"/><text x="713.85" y="402" text-anchor="middle" font-size="12" fill="#1f2430">2021-10</text><line x1="932.00" y1="72" x2="932.00" y2="368" stroke="#d7d2c6" stroke-width="1"/><text x="932.00" y="402" text-anchor="middle" font-size="12" fill="#1f2430">2026-02</text><polyline fill="none" stroke="#1d3557" stroke-width="2.8" points="72.00,154.57 76.20,142.44 80.39,142.24 84.59,147.14 88.78,142.41 92.98,149.99 97.17,151.44 101.37,149.72 105.56,157.42 109.76,168.08 113.95,172.32 118.15,178.80 122.34,187.11 126.54,185.84 130.73,182.03 134.93,183.93 139.12,184.13 143.32,192.72 147.51,193.22 151.71,193.71 155.90,198.39 160.10,200.82 164.29,203.43 168.49,205.48 172.68,208.10 176.88,211.32 181.07,216.11 185.27,221.38 189.46,228.55 193.66,233.76 197.85,237.82 202.05,239.99 206.24,242.98 210.44,244.45 214.63,243.91 218.83,244.13 223.02,245.76 227.22,240.78 231.41,237.04 235.61,243.30 239.80,245.34 244.00,246.68 248.20,249.35 252.39,244.57 256.59,248.54 260.78,250.17 264.98,246.11 269.17,252.15 273.37,254.95 277.56,246.33 281.76,243.48 285.95,252.11 290.15,259.44 294.34,262.62 298.54,265.22 302.73,259.70 306.93,269.23 311.12,269.48 315.32,264.39 319.51,268.12 323.71,276.63 327.90,268.43 332.10,267.07 336.29,281.96 340.49,283.33 344.68,289.18 348.88,288.50 353.07,286.14 357.27,290.47 361.46,291.28 365.66,289.94 369.85,289.90 374.05,293.26 378.24,289.41 382.44,290.12 386.63,294.05 390.83,293.50 395.02,298.37 399.22,296.06 403.41,297.97 407.61,303.81 411.80,310.40 416.00,295.17 420.20,295.78 424.39,298.64 428.59,294.15 432.78,290.50 436.98,296.98 441.17,297.84 445.37,299.81 449.56,297.16 453.76,291.59 457.95,291.33 462.15,283.84 466.34,275.79 470.54,280.56 474.73,284.52 478.93,285.86 483.12,286.57 487.32,287.61 491.51,287.60 495.71,290.62 499.90,287.94 504.10,289.33 508.29,286.31 512.49,282.77 516.68,275.35 520.88,277.32 525.07,276.90 529.27,269.82 533.46,255.67 537.66,264.60 541.85,264.70 546.05,267.63 550.24,265.08 554.44,256.74 558.63,265.13 562.83,264.81 567.02,256.59 571.22,261.76 575.41,265.34 579.61,259.26 583.80,254.62 588.00,262.05 592.20,265.60 596.39,274.38 600.59,278.87 604.78,270.71 608.98,269.95 613.17,265.68 617.37,262.33 621.56,271.71 625.76,273.40 629.95,262.58 634.15,258.34 638.34,163.10 642.54,119.45 646.73,90.94 650.93,92.60 655.12,95.65 659.32,102.67 663.51,107.51 667.71,115.03 671.90,117.76 676.10,119.63 680.29,129.66 684.49,149.74 688.68,162.01 692.88,175.61 697.07,189.42 701.27,200.33 705.46,213.01 709.66,240.30 713.85,232.28 718.05,241.44 722.24,246.56 726.44,235.12 730.63,231.29 734.83,243.64 739.02,251.92 743.22,266.20 747.41,279.20 751.61,280.65 755.80,267.42 760.00,274.70 764.20,273.62 768.39,264.23 772.59,273.95 776.78,255.93 780.98,248.03 785.17,248.63 789.37,258.07 793.56,254.33 797.76,221.97 801.95,199.53 806.15,178.49 810.34,166.62 814.54,153.46 818.73,139.06 822.93,140.22 827.12,133.32 831.32,118.09 835.51,115.68 839.71,132.18 843.90,134.12 848.10,143.00 852.29,134.87 856.49,120.63 860.68,132.86 864.88,121.16 869.07,107.17 873.27,125.68 877.46,112.65 881.66,115.40 885.85,133.15 890.05,141.31 894.24,146.45 898.44,166.53 902.63,153.03 906.83,127.47 911.02,129.85 915.22,117.25 919.41,109.08 923.61,125.50 927.80,122.46 932.00,108.25"/><polyline fill="none" stroke="#c8553d" stroke-width="2.8" points="72.00,141.06 76.20,133.65 80.39,172.74 84.59,130.92 88.78,94.56 92.98,89.03 97.17,86.24 101.37,99.56 105.56,110.79 109.76,102.37 113.95,128.20 118.15,72.00 122.34,93.30 126.54,96.49 130.73,79.29 134.93,93.53 139.12,126.44 143.32,158.02 147.51,167.62 151.71,206.84 155.90,208.52 160.10,203.42 164.29,185.03 168.49,132.57 172.68,132.10 176.88,122.82 181.07,115.39 185.27,130.94 189.46,159.80 193.66,151.91 197.85,184.42 202.05,237.09 206.24,253.36 210.44,233.87 214.63,248.99 218.83,261.17 223.02,271.48 227.22,261.56 231.41,238.29 235.61,263.89 239.80,290.24 244.00,287.43 248.20,299.89 252.39,294.21 256.59,291.92 260.78,283.04 264.98,293.24 269.17,280.00 273.37,259.40 277.56,271.23 281.76,272.01 285.95,285.55 290.15,243.22 294.34,206.15 298.54,199.53 302.73,178.77 306.93,195.13 311.12,205.12 315.32,191.46 319.51,160.96 323.71,187.34 327.90,190.28 332.10,177.59 336.29,180.74 340.49,200.53 344.68,193.34 348.88,186.14 353.07,202.81 357.27,186.14 361.46,202.86 365.66,215.48 369.85,213.85 374.05,255.92 378.24,227.38 382.44,238.57 386.63,229.65 390.83,220.93 395.02,202.89 399.22,217.23 403.41,219.24 407.61,231.23 411.80,223.29 416.00,219.95 420.20,214.39 424.39,251.73 428.59,268.23 432.78,263.51 436.98,259.40 441.17,258.84 445.37,290.77 449.56,291.35 453.76,281.62 457.95,281.23 462.15,262.15 466.34,215.23 470.54,205.31 474.73,207.84 478.93,215.70 483.12,221.88 487.32,235.52 491.51,247.16 495.71,243.04 499.90,244.39 504.10,257.39 508.29,241.94 512.49,238.12 516.68,239.07 520.88,240.02 525.07,214.95 529.27,207.18 533.46,221.46 537.66,205.80 541.85,219.29 546.05,217.26 550.24,211.01 554.44,223.85 558.63,209.07 562.83,208.01 567.02,220.96 571.22,252.24 575.41,257.48 579.61,251.86 583.80,277.94 588.00,269.57 592.20,298.68 596.39,305.02 600.59,300.34 604.78,340.87 608.98,321.58 613.17,309.89 617.37,303.18 621.56,291.67 625.76,326.92 629.95,353.08 634.15,346.94 638.34,355.04 642.54,358.58 646.73,361.09 650.93,368.00 655.12,356.54 659.32,359.81 663.51,344.31 667.71,344.96 671.90,341.05 676.10,327.63 680.29,290.52 684.49,266.71 688.68,274.22 692.88,279.71 697.07,284.85 701.27,305.02 705.46,299.36 709.66,277.63 713.85,267.83 718.05,274.16 722.24,270.27 726.44,248.52 730.63,247.74 734.83,207.34 739.02,171.79 743.22,187.12 747.41,195.88 751.61,251.46 755.80,220.32 760.00,174.63 764.20,176.53 768.39,227.34 772.59,213.97 776.78,256.26 780.98,217.64 785.17,255.43 789.37,271.05 793.56,263.59 797.76,243.57 801.95,236.21 806.15,226.21 810.34,182.42 814.54,156.99 818.73,203.20 822.93,245.27 827.12,232.11 831.32,209.09 835.51,215.12 839.71,173.27 843.90,187.11 848.10,205.48 852.29,224.00 856.49,235.91 860.68,228.19 864.88,179.27 869.07,185.93 873.27,146.34 877.46,146.94 881.66,176.39 885.85,177.64 890.05,188.24 894.24,168.88 898.44,184.03 902.63,173.09 906.83,181.97 911.02,176.92 915.22,177.85 919.41,185.63 923.61,165.64 927.80,158.37 932.00,183.64"/></svg>