<svg xmlns="http://www.w3.org/2000/svg" width="960" height="420" viewBox="0 0 960 420" role="img"><rect width="960" height="420" fill="#fbfaf5"/><text x="72" y="48" font-size="24" font-weight="700" fill="#1f2430">Maturity-Tilt Flow vs 10Y Yield</text><text x="72" y="66" font-size="13" fill="#1f2430">Overlay shown in standardized units from 2009 onward to compare timing, not absolute levels.</text><rect x="72" y="18" width="14" height="14" fill="#1d3557"/><text x="94" y="30" font-size="13" fill="#1f2430">Maturity-Tilt Flow (standardized)</text><rect x="352" y="18" width="14" height="14" fill="#c8553d"/><text x="374" y="30" font-size="13" fill="#1f2430">10Y Treasury yield (standardized)</text><line x1="72" y1="368" x2="932" y2="368" stroke="#1f2430" stroke-width="1.2"/><line x1="72" y1="72" x2="72" y2="368" stroke="#1f2430" stroke-width="1.2"/><line x1="72" y1="368.00" x2="932" y2="368.00" stroke="#d7d2c6" stroke-width="1"/><text x="64" y="372.00" text-anchor="end" font-size="12" fill="#1f2430">-2.3z</text><line x1="72" y1="294.00" x2="932" y2="294.00" stroke="#d7d2c6" stroke-width="1"/><text x="64" y="298.00" text-anchor="end" font-size="12" fill="#1f2430">-0.2z</text><line x1="72" y1="220.00" x2="932" y2="220.00" stroke="#d7d2c6" stroke-width="1"/><text x="64" y="224.00" text-anchor="end" font-size="12" fill="#1f2430">1.8z</text><line x1="72" y1="146.00" x2="932" y2="146.00" stroke="#d7d2c6" stroke-width="1"/><text x="64" y="150.00" text-anchor="end" font-size="12" fill="#1f2430">3.9z</text><line x1="72" y1="72.00" x2="932" y2="72.00" stroke="#d7d2c6" stroke-width="1"/><text x="64" y="76.00" text-anchor="end" font-size="12" fill="#1f2430">6.0z</text><line x1="76.20" y1="72" x2="76.20" y2="368" stroke="#d7d2c6" stroke-width="1"/><text x="76.20" y="402" text-anchor="middle" font-size="12" fill="#1f2430">2009-02</text><line x1="290.15" y1="72" x2="290.15" y2="368" stroke="#d7d2c6" stroke-width="1"/><text x="290.15" y="402" text-anchor="middle" font-size="12" fill="#1f2430">2013-05</text><line x1="504.10" y1="72" x2="504.10" y2="368" stroke="#d7d2c6" stroke-width="1"/><text x="504.10" y="402" text-anchor="middle" font-size="12" fill="#1f2430">2017-08</text><line x1="718.05" y1="72" x2="718.05" y2="368" stroke="#d7d2c6" stroke-width="1"/><text x="718.05" y="402" text-anchor="middle" font-size="12" fill="#1f2430">2021-11</text><line x1="936.20" y1="72" x2="936.20" y2="368" stroke="#d7d2c6" stroke-width="1"/><text x="936.20" y="402" text-anchor="middle" font-size="12" fill="#1f2430">2026-03</text><polyline fill="none" stroke="#1d3557" stroke-width="2.8" points="72.00,280.85 76.20,280.85 80.39,288.16 84.59,288.16 88.78,288.16 92.98,288.16 97.17,301.27 101.37,301.27 105.56,301.27 109.76,316.19 113.95,316.19 118.15,316.19 122.34,288.24 126.54,288.24 130.73,288.24 134.93,297.47 139.12,297.47 143.32,297.47 147.51,292.47 151.71,292.47 155.90,292.47 160.10,295.26 164.29,295.26 168.49,295.26 172.68,302.28 176.88,302.28 181.07,302.28 185.27,303.54 189.46,303.54 193.66,303.54 197.85,299.37 202.05,299.37 206.24,299.37 210.44,287.24 214.63,287.24 218.83,287.24 223.02,279.59 227.22,279.59 231.41,279.59 235.61,298.69 239.80,298.69 244.00,298.69 248.20,281.99 252.39,281.99 256.59,282.24 260.78,282.24 264.98,282.24 269.17,282.24 273.37,286.15 277.56,286.15 281.76,286.15 285.95,310.13 290.15,310.13 294.34,287.31 298.54,287.31 302.73,287.31 306.93,287.31 311.12,279.51 315.32,279.51 319.51,279.51 323.71,298.15 327.90,298.15 332.10,319.97 336.29,319.97 340.49,319.97 344.68,319.97 348.88,285.45 353.07,285.45 357.27,285.45 361.46,285.25 365.66,285.25 369.85,285.25 374.05,286.77 378.24,286.77 382.44,286.77 386.63,296.69 390.83,296.69 395.02,296.69 399.22,291.52 403.41,291.52 407.61,291.52 411.80,282.48 416.00,282.48 420.20,282.48 424.39,279.01 428.59,279.01 432.78,279.01 436.98,301.83 441.17,301.83 445.37,301.83 449.56,273.93 453.76,273.93 457.95,273.93 462.15,269.95 466.34,269.95 470.54,269.95 474.73,289.80 478.93,289.80 483.12,289.80 487.32,290.92 491.51,290.92 495.71,290.92 499.90,279.89 504.10,279.89 508.29,279.89 512.49,274.78 516.68,274.78 520.88,257.61 525.07,257.61 529.27,257.61 533.46,257.61 537.66,302.59 541.85,302.59 546.05,302.59 550.24,283.21 554.44,283.21 558.63,283.13 562.83,283.13 567.02,283.13 571.22,279.90 575.41,279.90 579.61,279.90 583.80,279.90 588.00,313.01 592.20,313.01 596.39,280.27 600.59,280.27 604.78,280.27 608.98,288.56 613.17,288.56 617.37,288.56 621.56,288.56 625.76,265.62 629.95,265.62 634.15,265.62 638.34,72.00 642.54,72.00 646.73,72.00 650.93,311.48 655.12,311.48 659.32,311.48 663.51,343.56 667.71,343.56 671.90,343.56 676.10,333.50 680.29,333.50 684.49,333.50 688.68,368.00 692.88,368.00 697.07,368.00 701.27,287.66 705.46,287.66 709.66,287.66 713.85,277.35 718.05,277.35 722.24,277.35 726.44,334.16 730.63,334.16 734.83,334.16 739.02,273.76 743.22,273.76 747.41,273.76 751.61,285.72 755.80,285.72 760.00,285.72 764.20,259.06 768.39,259.06 772.59,259.06 776.78,249.90 780.98,249.90 785.17,249.90 789.37,205.55 793.56,205.55 797.76,205.55 801.95,252.93 806.15,252.93 810.34,252.93 814.54,255.46 818.73,255.46 822.93,324.43 827.12,324.43 831.32,324.43 835.51,324.43 839.71,275.78 843.90,275.78 848.10,276.49 852.29,276.49 856.49,276.49 860.68,306.57 864.88,306.57 869.07,306.57 873.27,306.57 877.46,331.49 881.66,331.49 885.85,226.32 890.05,226.32 894.24,226.32 898.44,280.72 902.63,280.72 906.83,280.72 911.02,280.72 915.22,280.72 919.41,280.72 923.61,280.72 927.80,280.72 932.00,280.72"/><polyline fill="none" stroke="#c8553d" stroke-width="2.8" points="72.00,272.84 76.20,283.83 80.39,267.87 84.59,256.87 88.78,254.74 92.98,255.10 97.17,259.35 101.37,262.55 105.56,259.00 109.76,266.09 113.95,243.39 118.15,251.19 122.34,251.90 126.54,243.74 130.73,249.07 134.93,262.55 139.12,274.61 143.32,275.67 147.51,292.35 151.71,290.22 155.90,286.67 160.10,280.29 164.29,262.90 168.49,258.64 172.68,258.64 176.88,256.87 181.07,262.19 185.27,271.77 189.46,267.16 193.66,279.93 197.85,300.86 202.05,311.86 206.24,302.99 210.44,306.18 214.63,312.92 218.83,315.05 223.02,309.73 227.22,300.86 231.41,310.80 235.61,323.57 239.80,320.73 244.00,326.40 248.20,324.28 252.39,321.44 256.59,318.95 260.78,322.50 264.98,316.83 269.17,308.31 273.37,312.92 277.56,313.63 281.76,319.66 285.95,303.35 290.15,290.57 294.34,287.74 298.54,281.35 302.73,286.32 306.93,288.80 311.12,282.41 315.32,272.13 319.51,285.25 323.71,285.61 327.90,283.12 332.10,285.25 336.29,291.99 340.49,290.22 344.68,288.44 348.88,296.60 353.07,290.57 357.27,296.60 361.46,302.64 365.66,302.99 369.85,320.37 374.05,309.02 378.24,311.15 382.44,307.25 386.63,304.76 390.83,296.60 395.02,301.93 399.22,301.57 403.41,306.89 407.61,303.35 411.80,301.57 416.00,299.44 420.20,311.15 424.39,318.25 428.59,316.83 432.78,315.05 436.98,314.70 441.17,327.11 445.37,328.18 449.56,323.92 453.76,323.21 457.95,314.70 462.15,295.89 466.34,293.06 470.54,293.06 474.73,296.25 478.93,294.83 483.12,298.73 487.32,301.57 491.51,298.02 495.71,298.38 499.90,304.76 504.10,297.31 508.29,295.54 512.49,294.12 516.68,294.83 520.88,283.48 525.07,278.16 529.27,282.77 533.46,275.32 537.66,279.58 541.85,278.87 546.05,274.96 550.24,278.51 554.44,271.77 558.63,268.22 562.83,273.19 567.02,284.54 571.22,286.67 575.41,283.12 579.61,294.48 583.80,290.93 588.00,304.05 592.20,309.02 596.39,308.31 600.59,326.76 604.78,320.37 608.98,320.02 613.17,316.83 617.37,311.86 621.56,326.40 625.76,339.89 629.95,355.14 634.15,357.27 638.34,356.91 642.54,356.56 646.73,360.46 650.93,354.43 655.12,355.50 659.32,348.75 663.51,350.17 667.71,346.98 671.90,340.60 676.10,328.89 680.29,318.25 684.49,321.44 688.68,323.92 692.88,328.53 697.07,335.98 701.27,333.85 705.46,326.05 709.66,324.99 713.85,329.24 718.05,326.05 722.24,316.47 726.44,315.05 730.63,297.67 734.83,277.45 739.02,278.87 743.22,274.25 747.41,285.25 751.61,268.22 755.80,244.10 760.00,234.52 764.20,249.42 768.39,242.33 772.59,255.10 776.78,240.91 780.98,256.52 785.17,257.94 789.37,250.84 793.56,244.81 797.76,239.13 801.95,234.88 806.15,217.14 810.34,206.85 814.54,224.94 818.73,242.33 822.93,238.42 827.12,229.20 831.32,230.97 835.51,213.59 839.71,219.98 843.90,225.30 848.10,234.88 852.29,241.26 856.49,244.81 860.68,228.13 864.88,231.68 869.07,217.49 873.27,217.49 877.46,229.55 881.66,229.91 885.85,232.04 890.05,223.52 894.24,229.55 898.44,224.94 902.63,229.91 906.83,232.39 911.02,234.17 915.22,237.36 919.41,231.68 923.61,228.84 927.80,239.13 932.00,229.20"/></svg>