<svg xmlns="http://www.w3.org/2000/svg" width="960" height="420" viewBox="0 0 960 420" role="img"><rect width="960" height="420" fill="#fbfaf5"/><text x="72" y="48" font-size="24" font-weight="700" fill="#1f2430">Maturity-Tilt Flow vs 10Y Yield</text><text x="72" y="66" font-size="13" fill="#1f2430">Overlay shown in standardized units from 2009 onward to compare timing, not absolute levels.</text><rect x="72" y="18" width="14" height="14" fill="#1d3557"/><text x="94" y="30" font-size="13" fill="#1f2430">Maturity-Tilt Flow (standardized)</text><rect x="352" y="18" width="14" height="14" fill="#c8553d"/><text x="374" y="30" font-size="13" fill="#1f2430">10Y Treasury yield (standardized)</text><line x1="72" y1="368" x2="932" y2="368" stroke="#1f2430" stroke-width="1.2"/><line x1="72" y1="72" x2="72" y2="368" stroke="#1f2430" stroke-width="1.2"/><line x1="72" y1="368.00" x2="932" y2="368.00" stroke="#d7d2c6" stroke-width="1"/><text x="64" y="372.00" text-anchor="end" font-size="12" fill="#1f2430">-2.3z</text><line x1="72" y1="294.00" x2="932" y2="294.00" stroke="#d7d2c6" stroke-width="1"/><text x="64" y="298.00" text-anchor="end" font-size="12" fill="#1f2430">-0.2z</text><line x1="72" y1="220.00" x2="932" y2="220.00" stroke="#d7d2c6" stroke-width="1"/><text x="64" y="224.00" text-anchor="end" font-size="12" fill="#1f2430">1.8z</text><line x1="72" y1="146.00" x2="932" y2="146.00" stroke="#d7d2c6" stroke-width="1"/><text x="64" y="150.00" text-anchor="end" font-size="12" fill="#1f2430">3.9z</text><line x1="72" y1="72.00" x2="932" y2="72.00" stroke="#d7d2c6" stroke-width="1"/><text x="64" y="76.00" text-anchor="end" font-size="12" fill="#1f2430">6.0z</text><line x1="76.22" y1="72" x2="76.22" y2="368" stroke="#d7d2c6" stroke-width="1"/><text x="76.22" y="402" text-anchor="middle" font-size="12" fill="#1f2430">2009-02</text><line x1="291.22" y1="72" x2="291.22" y2="368" stroke="#d7d2c6" stroke-width="1"/><text x="291.22" y="402" text-anchor="middle" font-size="12" fill="#1f2430">2013-05</text><line x1="506.22" y1="72" x2="506.22" y2="368" stroke="#d7d2c6" stroke-width="1"/><text x="506.22" y="402" text-anchor="middle" font-size="12" fill="#1f2430">2017-08</text><line x1="721.22" y1="72" x2="721.22" y2="368" stroke="#d7d2c6" stroke-width="1"/><text x="721.22" y="402" text-anchor="middle" font-size="12" fill="#1f2430">2021-11</text><line x1="936.22" y1="72" x2="936.22" y2="368" stroke="#d7d2c6" stroke-width="1"/><text x="936.22" y="402" text-anchor="middle" font-size="12" fill="#1f2430">2026-02</text><polyline fill="none" stroke="#1d3557" stroke-width="2.8" points="72.00,280.85 76.22,280.85 80.43,288.16 84.65,288.16 88.86,288.16 93.08,288.16 97.29,301.27 101.51,301.27 105.73,301.27 109.94,316.19 114.16,316.19 118.37,316.19 122.59,288.24 126.80,288.24 131.02,288.24 135.24,297.47 139.45,297.47 143.67,297.47 147.88,292.47 152.10,292.47 156.31,292.47 160.53,295.26 164.75,295.26 168.96,295.26 173.18,302.28 177.39,302.28 181.61,302.28 185.82,303.54 190.04,303.54 194.25,303.54 198.47,299.37 202.69,299.37 206.90,299.37 211.12,287.24 215.33,287.24 219.55,287.24 223.76,279.59 227.98,279.59 232.20,279.59 236.41,298.69 240.63,298.69 244.84,298.69 249.06,281.99 253.27,281.99 257.49,282.24 261.71,282.24 265.92,282.24 270.14,282.24 274.35,286.15 278.57,286.15 282.78,286.15 287.00,310.13 291.22,310.13 295.43,287.31 299.65,287.31 303.86,287.31 308.08,287.31 312.29,279.51 316.51,279.51 320.73,279.51 324.94,298.15 329.16,298.15 333.37,319.97 337.59,319.97 341.80,319.97 346.02,319.97 350.24,285.45 354.45,285.45 358.67,285.45 362.88,285.25 367.10,285.25 371.31,285.25 375.53,286.77 379.75,286.77 383.96,286.77 388.18,296.69 392.39,296.69 396.61,296.69 400.82,291.52 405.04,291.52 409.25,291.52 413.47,282.48 417.69,282.48 421.90,282.48 426.12,279.01 430.33,279.01 434.55,279.01 438.76,301.83 442.98,301.83 447.20,301.83 451.41,273.93 455.63,273.93 459.84,273.93 464.06,269.95 468.27,269.95 472.49,269.95 476.71,289.80 480.92,289.80 485.14,289.80 489.35,290.92 493.57,290.92 497.78,290.92 502.00,279.89 506.22,279.89 510.43,279.89 514.65,274.78 518.86,274.78 523.08,257.61 527.29,257.61 531.51,257.61 535.73,257.61 539.94,302.59 544.16,302.59 548.37,302.59 552.59,283.21 556.80,283.21 561.02,283.13 565.24,283.13 569.45,283.13 573.67,279.90 577.88,279.90 582.10,279.90 586.31,279.90 590.53,313.01 594.75,313.01 598.96,280.27 603.18,280.27 607.39,280.27 611.61,288.56 615.82,288.56 620.04,288.56 624.25,288.56 628.47,265.62 632.69,265.62 636.90,265.62 641.12,72.00 645.33,72.00 649.55,72.00 653.76,311.48 657.98,311.48 662.20,311.48 666.41,343.56 670.63,343.56 674.84,343.56 679.06,333.50 683.27,333.50 687.49,333.50 691.71,368.00 695.92,368.00 700.14,368.00 704.35,287.66 708.57,287.66 712.78,287.66 717.00,277.35 721.22,277.35 725.43,277.35 729.65,334.16 733.86,334.16 738.08,334.16 742.29,273.76 746.51,273.76 750.73,273.76 754.94,285.72 759.16,285.72 763.37,285.72 767.59,259.06 771.80,259.06 776.02,259.06 780.24,249.90 784.45,249.90 788.67,249.90 792.88,205.55 797.10,205.55 801.31,205.55 805.53,252.93 809.75,252.93 813.96,252.93 818.18,255.46 822.39,255.46 826.61,324.43 830.82,324.43 835.04,324.43 839.25,324.43 843.47,275.78 847.69,275.78 851.90,276.49 856.12,276.49 860.33,276.49 864.55,306.57 868.76,306.57 872.98,306.57 877.20,306.57 881.41,331.49 885.63,331.49 889.84,226.32 894.06,226.32 898.27,226.32 902.49,280.72 906.71,280.72 910.92,280.72 915.14,280.72 919.35,280.72 923.57,280.72 927.78,280.72 932.00,280.72"/><polyline fill="none" stroke="#c8553d" stroke-width="2.8" points="72.00,272.50 76.22,283.57 80.43,267.51 84.65,256.44 88.86,254.30 93.08,254.66 97.29,258.94 101.51,262.15 105.73,258.58 109.94,265.72 114.16,242.88 118.37,250.73 122.59,251.44 126.80,243.23 131.02,248.59 135.24,262.15 139.45,274.29 143.67,275.36 147.88,292.14 152.10,289.99 156.31,286.43 160.53,280.00 164.75,262.51 168.96,258.23 173.18,258.23 177.39,256.44 181.61,261.80 185.82,271.43 190.04,266.79 194.25,279.64 198.47,300.70 202.69,311.77 206.90,302.84 211.12,306.06 215.33,312.84 219.55,314.98 223.76,309.63 227.98,300.70 232.20,310.70 236.41,323.55 240.63,320.69 244.84,326.40 249.06,324.26 253.27,321.41 257.49,318.91 261.71,322.48 265.92,316.77 270.14,308.20 274.35,312.84 278.57,313.55 282.78,319.62 287.00,303.20 291.22,290.35 295.43,287.50 299.65,281.07 303.86,286.07 308.08,288.57 312.29,282.14 316.51,271.79 320.73,285.00 324.94,285.35 329.16,282.86 333.37,285.00 337.59,291.78 341.80,289.99 346.02,288.21 350.24,296.42 354.45,290.35 358.67,296.42 362.88,302.49 367.10,302.84 371.31,320.33 375.53,308.91 379.75,311.05 383.96,307.13 388.18,304.63 392.39,296.42 396.61,301.77 400.82,301.42 405.04,306.77 409.25,303.20 413.47,301.42 417.69,299.27 421.90,311.05 426.12,318.19 430.33,316.77 434.55,314.98 438.76,314.62 442.98,327.12 447.20,328.19 451.41,323.90 455.63,323.19 459.84,314.62 464.06,295.71 468.27,292.85 472.49,292.85 476.71,296.06 480.92,294.63 485.14,298.56 489.35,301.42 493.57,297.85 497.78,298.20 502.00,304.63 506.22,297.13 510.43,295.35 514.65,293.92 518.86,294.63 523.08,283.21 527.29,277.86 531.51,282.50 535.73,275.00 539.94,279.29 544.16,278.57 548.37,274.65 552.59,278.22 556.80,271.43 561.02,267.86 565.24,272.86 569.45,284.28 573.67,286.43 577.88,282.86 582.10,294.28 586.31,290.71 590.53,303.92 594.75,308.91 598.96,308.20 603.18,326.76 607.39,320.33 611.61,319.98 615.82,316.77 620.04,311.77 624.25,326.40 628.47,339.97 632.69,355.32 636.90,357.46 641.12,357.10 645.33,356.74 649.55,360.67 653.76,354.60 657.98,355.67 662.20,348.89 666.41,350.32 670.63,347.11 674.84,340.68 679.06,328.90 683.27,318.19 687.49,321.41 691.71,323.90 695.92,328.54 700.14,336.04 704.35,333.90 708.57,326.05 712.78,324.97 717.00,329.26 721.22,326.05 725.43,316.41 729.65,314.98 733.86,297.49 738.08,277.14 742.29,278.57 746.51,273.93 750.73,285.00 754.94,267.86 759.16,243.59 763.37,233.95 767.59,248.95 771.80,241.81 776.02,254.66 780.24,240.38 784.45,256.08 788.67,257.51 792.88,250.37 797.10,244.31 801.31,238.59 805.53,234.31 809.75,216.46 813.96,206.11 818.18,224.32 822.39,241.81 826.61,237.88 830.82,228.60 835.04,230.38 839.25,212.89 843.47,219.32 847.69,224.67 851.90,234.31 856.12,240.74 860.33,244.31 864.55,227.53 868.76,231.10 872.98,216.82 877.20,216.82 881.41,228.96 885.63,229.31 889.84,231.46 894.06,222.89 898.27,228.96 902.49,224.32 906.71,229.31 910.92,231.81 915.14,233.60 919.35,236.81 923.57,231.10 927.78,228.24 932.00,238.59"/></svg>