<svg xmlns="http://www.w3.org/2000/svg" width="960" height="840" viewBox="0 0 960 840" role="img"><rect width="960" height="840" fill="#fbfaf5"/><text x="280" y="44" font-size="24" font-weight="700" fill="#1f2430">Headline Pricing Coefficients and Subsamples</text><text x="280" y="62" font-size="13" fill="#1f2430">All coefficients reported in basis points per $100bn shock on the named input.</text><line x1="902.86" y1="66" x2="902.86" y2="804" stroke="#1f2430" stroke-width="1.4"/><line x1="280.00" y1="66" x2="280.00" y2="804" stroke="#d7d2c6" stroke-width="1"/><text x="280.00" y="828" text-anchor="middle" font-size="12" fill="#1f2430">-44.1</text><line x1="441.00" y1="66" x2="441.00" y2="804" stroke="#d7d2c6" stroke-width="1"/><text x="441.00" y="828" text-anchor="middle" font-size="12" fill="#1f2430">-32.7</text><line x1="602.00" y1="66" x2="602.00" y2="804" stroke="#d7d2c6" stroke-width="1"/><text x="602.00" y="828" text-anchor="middle" font-size="12" fill="#1f2430">-21.3</text><line x1="763.00" y1="66" x2="763.00" y2="804" stroke="#d7d2c6" stroke-width="1"/><text x="763.00" y="828" text-anchor="middle" font-size="12" fill="#1f2430">-9.9</text><line x1="924.00" y1="66" x2="924.00" y2="804" stroke="#d7d2c6" stroke-width="1"/><text x="924.00" y="828" text-anchor="middle" font-size="12" fill="#1f2430">1.5</text><text x="268" y="87" text-anchor="end" font-size="12" fill="#1f2430">Flow baseline | 10Y Term Premium</text><rect x="863.09" y="75" width="39.77" height="16" fill="#c8553d" rx="2"/><text x="855.09" y="87" text-anchor="end" font-size="12" fill="#1f2430">-2.81</text><text x="268" y="111" text-anchor="end" font-size="12" fill="#1f2430">Flow baseline | 10Y Yield</text><rect x="829.13" y="99" width="73.73" height="16" fill="#c8553d" rx="2"/><text x="821.13" y="111" text-anchor="end" font-size="12" fill="#1f2430">-5.22</text><text x="268" y="135" text-anchor="end" font-size="12" fill="#1f2430">Stock baseline | 10Y Term Premium</text><rect x="902.86" y="123" width="11.80" height="16" fill="#1d3557" rx="2"/><text x="922.66" y="135" text-anchor="start" font-size="12" fill="#1f2430">0.83</text><text x="268" y="159" text-anchor="end" font-size="12" fill="#1f2430">Stock baseline | 10Y Yield</text><rect x="902.86" y="147" width="21.14" height="16" fill="#1d3557" rx="2"/><text x="932.00" y="159" text-anchor="start" font-size="12" fill="#1f2430">1.50</text><text x="268" y="183" text-anchor="end" font-size="12" fill="#1f2430">Duration baseline | 10Y Term Premium</text><rect x="534.07" y="171" width="368.79" height="16" fill="#c8553d" rx="2"/><text x="526.07" y="183" text-anchor="end" font-size="12" fill="#1f2430">-26.08</text><text x="268" y="207" text-anchor="end" font-size="12" fill="#1f2430">Duration baseline | 10Y Yield</text><rect x="280.00" y="195" width="622.86" height="16" fill="#c8553d" rx="2"/><text x="272.00" y="207" text-anchor="end" font-size="12" fill="#1f2430">-44.05</text><text x="268" y="231" text-anchor="end" font-size="12" fill="#1f2430">nan | post 2009 | 10Y Term Premium</text><rect x="863.09" y="219" width="39.77" height="16" fill="#c8553d" rx="2"/><text x="855.09" y="231" text-anchor="end" font-size="12" fill="#1f2430">-2.81</text><text x="268" y="255" text-anchor="end" font-size="12" fill="#1f2430">nan | post 2009 | 10Y Yield</text><rect x="829.13" y="243" width="73.73" height="16" fill="#c8553d" rx="2"/><text x="821.13" y="255" text-anchor="end" font-size="12" fill="#1f2430">-5.22</text><text x="268" y="279" text-anchor="end" font-size="12" fill="#1f2430">nan | post 2014 | 10Y Term Premium</text><rect x="873.03" y="267" width="29.83" height="16" fill="#c8553d" rx="2"/><text x="865.03" y="279" text-anchor="end" font-size="12" fill="#1f2430">-2.11</text><text x="268" y="303" text-anchor="end" font-size="12" fill="#1f2430">nan | post 2014 | 10Y Yield</text><rect x="847.83" y="291" width="55.03" height="16" fill="#c8553d" rx="2"/><text x="839.83" y="303" text-anchor="end" font-size="12" fill="#1f2430">-3.89</text><text x="268" y="327" text-anchor="end" font-size="12" fill="#1f2430">nan | post 2020 | 10Y Term Premium</text><rect x="874.01" y="315" width="28.85" height="16" fill="#c8553d" rx="2"/><text x="866.01" y="327" text-anchor="end" font-size="12" fill="#1f2430">-2.04</text><text x="268" y="351" text-anchor="end" font-size="12" fill="#1f2430">nan | post 2020 | 10Y Yield</text><rect x="849.74" y="339" width="53.11" height="16" fill="#c8553d" rx="2"/><text x="841.74" y="351" text-anchor="end" font-size="12" fill="#1f2430">-3.76</text><text x="268" y="375" text-anchor="end" font-size="12" fill="#1f2430">nan | exclude debt limit | 10Y Term Premium</text><rect x="850.31" y="363" width="52.54" height="16" fill="#c8553d" rx="2"/><text x="842.31" y="375" text-anchor="end" font-size="12" fill="#1f2430">-3.72</text><text x="268" y="399" text-anchor="end" font-size="12" fill="#1f2430">nan | exclude debt limit | 10Y Yield</text><rect x="803.31" y="387" width="99.55" height="16" fill="#c8553d" rx="2"/><text x="795.31" y="399" text-anchor="end" font-size="12" fill="#1f2430">-7.04</text><text x="268" y="423" text-anchor="end" font-size="12" fill="#1f2430">nan | post 2009 | 10Y Term Premium</text><rect x="902.86" y="411" width="11.80" height="16" fill="#1d3557" rx="2"/><text x="922.66" y="423" text-anchor="start" font-size="12" fill="#1f2430">0.83</text><text x="268" y="447" text-anchor="end" font-size="12" fill="#1f2430">nan | post 2009 | 10Y Yield</text><rect x="902.86" y="435" width="21.14" height="16" fill="#1d3557" rx="2"/><text x="932.00" y="447" text-anchor="start" font-size="12" fill="#1f2430">1.50</text><text x="268" y="471" text-anchor="end" font-size="12" fill="#1f2430">nan | post 2014 | 10Y Term Premium</text><rect x="888.77" y="459" width="14.09" height="16" fill="#c8553d" rx="2"/><text x="880.77" y="471" text-anchor="end" font-size="12" fill="#1f2430">-1.00</text><text x="268" y="495" text-anchor="end" font-size="12" fill="#1f2430">nan | post 2014 | 10Y Yield</text><rect x="878.50" y="483" width="24.35" height="16" fill="#c8553d" rx="2"/><text x="870.50" y="495" text-anchor="end" font-size="12" fill="#1f2430">-1.72</text><text x="268" y="519" text-anchor="end" font-size="12" fill="#1f2430">nan | post 2020 | 10Y Term Premium</text><rect x="897.76" y="507" width="5.10" height="16" fill="#c8553d" rx="2"/><text x="889.76" y="519" text-anchor="end" font-size="12" fill="#1f2430">-0.36</text><text x="268" y="543" text-anchor="end" font-size="12" fill="#1f2430">nan | post 2020 | 10Y Yield</text><rect x="893.68" y="531" width="9.18" height="16" fill="#c8553d" rx="2"/><text x="885.68" y="543" text-anchor="end" font-size="12" fill="#1f2430">-0.65</text><text x="268" y="567" text-anchor="end" font-size="12" fill="#1f2430">nan | exclude debt limit | 10Y Term Premium</text><rect x="902.86" y="555" width="9.08" height="16" fill="#1d3557" rx="2"/><text x="919.93" y="567" text-anchor="start" font-size="12" fill="#1f2430">0.64</text><text x="268" y="591" text-anchor="end" font-size="12" fill="#1f2430">nan | exclude debt limit | 10Y Yield</text><rect x="902.86" y="579" width="16.36" height="16" fill="#1d3557" rx="2"/><text x="927.22" y="591" text-anchor="start" font-size="12" fill="#1f2430">1.16</text><text x="268" y="615" text-anchor="end" font-size="12" fill="#1f2430">nan | post 2009 | 10Y Term Premium</text><rect x="879.64" y="603" width="23.22" height="16" fill="#c8553d" rx="2"/><text x="871.64" y="615" text-anchor="end" font-size="12" fill="#1f2430">-1.64</text><text x="268" y="639" text-anchor="end" font-size="12" fill="#1f2430">nan | post 2009 | 10Y Yield</text><rect x="867.76" y="627" width="35.10" height="16" fill="#c8553d" rx="2"/><text x="859.76" y="639" text-anchor="end" font-size="12" fill="#1f2430">-2.48</text><text x="268" y="663" text-anchor="end" font-size="12" fill="#1f2430">nan | post 2014 | 10Y Term Premium</text><rect x="762.72" y="651" width="140.14" height="16" fill="#c8553d" rx="2"/><text x="754.72" y="663" text-anchor="end" font-size="12" fill="#1f2430">-9.91</text><text x="268" y="687" text-anchor="end" font-size="12" fill="#1f2430">nan | post 2014 | 10Y Yield</text><rect x="665.02" y="675" width="237.84" height="16" fill="#c8553d" rx="2"/><text x="657.02" y="687" text-anchor="end" font-size="12" fill="#1f2430">-16.82</text><text x="268" y="711" text-anchor="end" font-size="12" fill="#1f2430">nan | post 2020 | 10Y Term Premium</text><rect x="891.86" y="699" width="10.99" height="16" fill="#c8553d" rx="2"/><text x="883.86" y="711" text-anchor="end" font-size="12" fill="#1f2430">-0.78</text><text x="268" y="735" text-anchor="end" font-size="12" fill="#1f2430">nan | post 2020 | 10Y Yield</text><rect x="881.38" y="723" width="21.47" height="16" fill="#c8553d" rx="2"/><text x="873.38" y="735" text-anchor="end" font-size="12" fill="#1f2430">-1.52</text><text x="268" y="759" text-anchor="end" font-size="12" fill="#1f2430">nan | exclude debt limit | 10Y Term Premium</text><rect x="580.58" y="747" width="322.27" height="16" fill="#c8553d" rx="2"/><text x="572.58" y="759" text-anchor="end" font-size="12" fill="#1f2430">-22.79</text><text x="268" y="783" text-anchor="end" font-size="12" fill="#1f2430">nan | exclude debt limit | 10Y Yield</text><rect x="395.42" y="771" width="507.44" height="16" fill="#c8553d" rx="2"/><text x="387.42" y="783" text-anchor="end" font-size="12" fill="#1f2430">-35.89</text></svg>