<svg xmlns="http://www.w3.org/2000/svg" width="960" height="264" viewBox="0 0 960 264" role="img"><rect width="960" height="264" fill="#fbfaf5"/><text x="280" y="44" font-size="24" font-weight="700" fill="#1f2430">Scenario Translation</text><text x="280" y="62" font-size="13" fill="#1f2430">Implied basis-point change using the matching baseline coefficient.</text><line x1="760.80" y1="66" x2="760.80" y2="228" stroke="#1f2430" stroke-width="1.4"/><line x1="280.00" y1="66" x2="280.00" y2="228" stroke="#d7d2c6" stroke-width="1"/><text x="280.00" y="252" text-anchor="middle" font-size="12" fill="#1f2430">-44.1</text><line x1="441.00" y1="66" x2="441.00" y2="228" stroke="#d7d2c6" stroke-width="1"/><text x="441.00" y="252" text-anchor="middle" font-size="12" fill="#1f2430">-29.3</text><line x1="602.00" y1="66" x2="602.00" y2="228" stroke="#d7d2c6" stroke-width="1"/><text x="602.00" y="252" text-anchor="middle" font-size="12" fill="#1f2430">-14.6</text><line x1="763.00" y1="66" x2="763.00" y2="228" stroke="#d7d2c6" stroke-width="1"/><text x="763.00" y="252" text-anchor="middle" font-size="12" fill="#1f2430">0.2</text><line x1="924.00" y1="66" x2="924.00" y2="228" stroke="#d7d2c6" stroke-width="1"/><text x="924.00" y="252" text-anchor="middle" font-size="12" fill="#1f2430">15.0</text><text x="268" y="87" text-anchor="end" font-size="12" fill="#1f2430">Plus $100bn Public Duration Supply shock | 10Y Term Premium</text><rect x="476.12" y="75" width="284.67" height="16" fill="#c8553d" rx="2"/><text x="468.12" y="87" text-anchor="end" font-size="12" fill="#1f2430">-26.08</text><text x="268" y="111" text-anchor="end" font-size="12" fill="#1f2430">Plus $100bn Public Duration Supply shock | 10Y Yield</text><rect x="280.00" y="99" width="480.80" height="16" fill="#c8553d" rx="2"/><text x="272.00" y="111" text-anchor="end" font-size="12" fill="#1f2430">-44.05</text><text x="268" y="135" text-anchor="end" font-size="12" fill="#1f2430">Plus $500bn term-out translation via Excess Bills Stock | 10Y Term Premium</text><rect x="760.80" y="123" width="45.56" height="16" fill="#1d3557" rx="2"/><text x="814.35" y="135" text-anchor="start" font-size="12" fill="#1f2430">4.17</text><text x="268" y="159" text-anchor="end" font-size="12" fill="#1f2430">Plus $500bn term-out translation via Excess Bills Stock | 10Y Yield</text><rect x="760.80" y="147" width="81.60" height="16" fill="#1d3557" rx="2"/><text x="850.40" y="159" text-anchor="start" font-size="12" fill="#1f2430">7.48</text><text x="268" y="183" text-anchor="end" font-size="12" fill="#1f2430">Plus $1000bn term-out translation via Excess Bills Stock | 10Y Term Premium</text><rect x="760.80" y="171" width="91.11" height="16" fill="#1d3557" rx="2"/><text x="859.91" y="183" text-anchor="start" font-size="12" fill="#1f2430">8.35</text><text x="268" y="207" text-anchor="end" font-size="12" fill="#1f2430">Plus $1000bn term-out translation via Excess Bills Stock | 10Y Yield</text><rect x="760.80" y="195" width="163.20" height="16" fill="#1d3557" rx="2"/><text x="932.00" y="207" text-anchor="start" font-size="12" fill="#1f2430">14.95</text></svg>