<svg xmlns="http://www.w3.org/2000/svg" width="960" height="420" viewBox="0 0 960 420" role="img"><rect width="960" height="420" fill="#fbfaf5"/><text x="72" y="48" font-size="24" font-weight="700" fill="#1f2430">Release-Flow Horizon Profile</text><text x="72" y="66" font-size="13" fill="#1f2430">Unique-release fixed-horizon coefficients in basis points per $100bn from the pre-release marker to the named horizon.</text><rect x="72" y="18" width="14" height="14" fill="#1d3557"/><text x="94" y="30" font-size="13" fill="#1f2430">10Y Treasury yield</text><rect x="312" y="18" width="14" height="14" fill="#c8553d"/><text x="334" y="30" font-size="13" fill="#1f2430">10Y term premium proxy</text><line x1="72" y1="364" x2="932" y2="364" stroke="#1f2430" stroke-width="1.2"/><line x1="72" y1="72" x2="72" y2="364" stroke="#1f2430" stroke-width="1.2"/><line x1="72" y1="164.22" x2="932" y2="164.22" stroke="#1f2430" stroke-width="1.2" stroke-dasharray="4 4"/><line x1="72" y1="364.00" x2="932" y2="364.00" stroke="#d7d2c6" stroke-width="1"/><text x="64" y="368.00" text-anchor="end" font-size="12" fill="#1f2430">-0.9</text><line x1="72" y1="291.00" x2="932" y2="291.00" stroke="#d7d2c6" stroke-width="1"/><text x="64" y="295.00" text-anchor="end" font-size="12" fill="#1f2430">-0.6</text><line x1="72" y1="218.00" x2="932" y2="218.00" stroke="#d7d2c6" stroke-width="1"/><text x="64" y="222.00" text-anchor="end" font-size="12" fill="#1f2430">-0.2</text><line x1="72" y1="145.00" x2="932" y2="145.00" stroke="#d7d2c6" stroke-width="1"/><text x="64" y="149.00" text-anchor="end" font-size="12" fill="#1f2430">0.1</text><line x1="72" y1="72.00" x2="932" y2="72.00" stroke="#d7d2c6" stroke-width="1"/><text x="64" y="76.00" text-anchor="end" font-size="12" fill="#1f2430">0.4</text><line x1="72.00" y1="72" x2="72.00" y2="364" stroke="#d7d2c6" stroke-width="1"/><text x="72.00" y="402" text-anchor="middle" font-size="12" fill="#1f2430">1</text><line x1="244.00" y1="72" x2="244.00" y2="364" stroke="#d7d2c6" stroke-width="1"/><text x="244.00" y="402" text-anchor="middle" font-size="12" fill="#1f2430">5</text><line x1="416.00" y1="72" x2="416.00" y2="364" stroke="#d7d2c6" stroke-width="1"/><text x="416.00" y="402" text-anchor="middle" font-size="12" fill="#1f2430">10</text><line x1="588.00" y1="72" x2="588.00" y2="364" stroke="#d7d2c6" stroke-width="1"/><text x="588.00" y="402" text-anchor="middle" font-size="12" fill="#1f2430">21</text><line x1="760.00" y1="72" x2="760.00" y2="364" stroke="#d7d2c6" stroke-width="1"/><text x="760.00" y="402" text-anchor="middle" font-size="12" fill="#1f2430">42</text><line x1="932.00" y1="72" x2="932.00" y2="364" stroke="#d7d2c6" stroke-width="1"/><text x="932.00" y="402" text-anchor="middle" font-size="12" fill="#1f2430">63</text><polyline fill="none" stroke="#1d3557" stroke-width="2.8" points="72.00,151.49 244.00,273.85 416.00,124.74 588.00,72.00 760.00,364.00 932.00,329.26"/><circle cx="72.00" cy="151.49" r="3.5" fill="#1d3557"/><circle cx="244.00" cy="273.85" r="3.5" fill="#1d3557"/><circle cx="416.00" cy="124.74" r="3.5" fill="#1d3557"/><circle cx="588.00" cy="72.00" r="3.5" fill="#1d3557"/><circle cx="760.00" cy="364.00" r="3.5" fill="#1d3557"/><circle cx="932.00" cy="329.26" r="3.5" fill="#1d3557"/><polyline fill="none" stroke="#c8553d" stroke-width="2.8" points="72.00,173.05 244.00,217.31 416.00,146.52 588.00,128.08 760.00,253.18 932.00,232.35"/><circle cx="72.00" cy="173.05" r="3.5" fill="#c8553d"/><circle cx="244.00" cy="217.31" r="3.5" fill="#c8553d"/><circle cx="416.00" cy="146.52" r="3.5" fill="#c8553d"/><circle cx="588.00" cy="128.08" r="3.5" fill="#c8553d"/><circle cx="760.00" cy="253.18" r="3.5" fill="#c8553d"/><circle cx="932.00" cy="232.35" r="3.5" fill="#c8553d"/><text x="480.00" y="418" text-anchor="middle" font-size="12" fill="#1f2430">Business days after release</text></svg>