<svg xmlns="http://www.w3.org/2000/svg" width="960" height="2280" viewBox="0 0 960 2280" role="img"><rect width="960" height="2280" fill="#fbfaf5"/><text x="280" y="44" font-size="24" font-weight="700" fill="#1f2430">Pricing Context Coefficients</text><text x="280" y="62" font-size="13" fill="#1f2430">Coefficients are reported in basis points per $100bn on the named input; +63bd is the primary release-level scalar.</text><line x1="874.21" y1="66" x2="874.21" y2="2244" stroke="#1f2430" stroke-width="1.4"/><line x1="280.00" y1="66" x2="280.00" y2="2244" stroke="#d7d2c6" stroke-width="1"/><text x="280.00" y="2268" text-anchor="middle" font-size="12" fill="#1f2430">-40.7</text><line x1="441.00" y1="66" x2="441.00" y2="2244" stroke="#d7d2c6" stroke-width="1"/><text x="441.00" y="2268" text-anchor="middle" font-size="12" fill="#1f2430">-29.6</text><line x1="602.00" y1="66" x2="602.00" y2="2244" stroke="#d7d2c6" stroke-width="1"/><text x="602.00" y="2268" text-anchor="middle" font-size="12" fill="#1f2430">-18.6</text><line x1="763.00" y1="66" x2="763.00" y2="2244" stroke="#d7d2c6" stroke-width="1"/><text x="763.00" y="2268" text-anchor="middle" font-size="12" fill="#1f2430">-7.6</text><line x1="924.00" y1="66" x2="924.00" y2="2244" stroke="#d7d2c6" stroke-width="1"/><text x="924.00" y="2268" text-anchor="middle" font-size="12" fill="#1f2430">3.4</text><text x="268" y="87" text-anchor="end" font-size="12" fill="#1f2430">Release flow (+1bd) | 10Y Term Premium</text><rect x="873.62" y="75" width="1.00" height="16" fill="#c8553d" rx="2"/><text x="865.62" y="87" text-anchor="end" font-size="12" fill="#1f2430">-0.04</text><text x="268" y="111" text-anchor="end" font-size="12" fill="#1f2430">Release flow (+1bd) | 10Y Yield</text><rect x="874.21" y="99" width="1.00" height="16" fill="#1d3557" rx="2"/><text x="883.05" y="111" text-anchor="start" font-size="12" fill="#1f2430">0.06</text><text x="268" y="135" text-anchor="end" font-size="12" fill="#1f2430">Release flow (+5bd) | 10Y Term Premium</text><rect x="870.69" y="123" width="3.52" height="16" fill="#c8553d" rx="2"/><text x="862.69" y="135" text-anchor="end" font-size="12" fill="#1f2430">-0.24</text><text x="268" y="159" text-anchor="end" font-size="12" fill="#1f2430">Release flow (+5bd) | 10Y Yield</text><rect x="866.94" y="147" width="7.27" height="16" fill="#c8553d" rx="2"/><text x="858.94" y="159" text-anchor="end" font-size="12" fill="#1f2430">-0.50</text><text x="268" y="183" text-anchor="end" font-size="12" fill="#1f2430">Release flow (+10bd) | 10Y Term Premium</text><rect x="874.21" y="171" width="1.17" height="16" fill="#1d3557" rx="2"/><text x="883.38" y="183" text-anchor="start" font-size="12" fill="#1f2430">0.08</text><text x="268" y="207" text-anchor="end" font-size="12" fill="#1f2430">Release flow (+10bd) | 10Y Yield</text><rect x="874.21" y="195" width="2.62" height="16" fill="#1d3557" rx="2"/><text x="884.83" y="207" text-anchor="start" font-size="12" fill="#1f2430">0.18</text><text x="268" y="231" text-anchor="end" font-size="12" fill="#1f2430">Release flow (+21bd) | 10Y Term Premium</text><rect x="874.21" y="219" width="2.40" height="16" fill="#1d3557" rx="2"/><text x="884.61" y="231" text-anchor="start" font-size="12" fill="#1f2430">0.16</text><text x="268" y="255" text-anchor="end" font-size="12" fill="#1f2430">Release flow (+21bd) | 10Y Yield</text><rect x="874.21" y="243" width="6.12" height="16" fill="#1d3557" rx="2"/><text x="888.33" y="255" text-anchor="start" font-size="12" fill="#1f2430">0.42</text><text x="268" y="279" text-anchor="end" font-size="12" fill="#1f2430">Release flow (+42bd) | 10Y Term Premium</text><rect x="868.31" y="267" width="5.90" height="16" fill="#c8553d" rx="2"/><text x="860.31" y="279" text-anchor="end" font-size="12" fill="#1f2430">-0.40</text><text x="268" y="303" text-anchor="end" font-size="12" fill="#1f2430">Release flow (+42bd) | 10Y Yield</text><rect x="860.96" y="291" width="13.25" height="16" fill="#c8553d" rx="2"/><text x="852.96" y="303" text-anchor="end" font-size="12" fill="#1f2430">-0.91</text><text x="268" y="327" text-anchor="end" font-size="12" fill="#1f2430">Release flow (+63bd anchor) | 10Y Term Premium</text><rect x="869.69" y="315" width="4.52" height="16" fill="#c8553d" rx="2"/><text x="861.69" y="327" text-anchor="end" font-size="12" fill="#1f2430">-0.31</text><text x="268" y="351" text-anchor="end" font-size="12" fill="#1f2430">Release flow (+63bd anchor) | 10Y Yield</text><rect x="863.26" y="339" width="10.95" height="16" fill="#c8553d" rx="2"/><text x="855.26" y="351" text-anchor="end" font-size="12" fill="#1f2430">-0.75</text><text x="268" y="375" text-anchor="end" font-size="12" fill="#1f2430">Flow baseline | 10Y Term Premium</text><rect x="833.20" y="363" width="41.01" height="16" fill="#c8553d" rx="2"/><text x="825.20" y="375" text-anchor="end" font-size="12" fill="#1f2430">-2.81</text><text x="268" y="399" text-anchor="end" font-size="12" fill="#1f2430">Flow baseline | 10Y Yield</text><rect x="798.19" y="387" width="76.02" height="16" fill="#c8553d" rx="2"/><text x="790.19" y="399" text-anchor="end" font-size="12" fill="#1f2430">-5.20</text><text x="268" y="423" text-anchor="end" font-size="12" fill="#1f2430">Stock baseline | 10Y Term Premium</text><rect x="874.21" y="411" width="11.89" height="16" fill="#1d3557" rx="2"/><text x="894.10" y="423" text-anchor="start" font-size="12" fill="#1f2430">0.81</text><text x="268" y="447" text-anchor="end" font-size="12" fill="#1f2430">Stock baseline | 10Y Yield</text><rect x="874.21" y="435" width="21.28" height="16" fill="#1d3557" rx="2"/><text x="903.49" y="447" text-anchor="start" font-size="12" fill="#1f2430">1.46</text><text x="268" y="471" text-anchor="end" font-size="12" fill="#1f2430">Duration baseline | 10Y Term Premium</text><rect x="519.51" y="459" width="354.70" height="16" fill="#c8553d" rx="2"/><text x="511.51" y="471" text-anchor="end" font-size="12" fill="#1f2430">-24.27</text><text x="268" y="495" text-anchor="end" font-size="12" fill="#1f2430">Duration baseline | 10Y Yield</text><rect x="280.00" y="483" width="594.21" height="16" fill="#c8553d" rx="2"/><text x="272.00" y="495" text-anchor="end" font-size="12" fill="#1f2430">-40.65</text><text x="268" y="519" text-anchor="end" font-size="12" fill="#1f2430">nan | post 2009 | 10Y Term Premium</text><rect x="873.62" y="507" width="1.00" height="16" fill="#c8553d" rx="2"/><text x="865.62" y="519" text-anchor="end" font-size="12" fill="#1f2430">-0.04</text><text x="268" y="543" text-anchor="end" font-size="12" fill="#1f2430">nan | post 2009 | 10Y Yield</text><rect x="874.21" y="531" width="1.00" height="16" fill="#1d3557" rx="2"/><text x="883.05" y="543" text-anchor="start" font-size="12" fill="#1f2430">0.06</text><text x="268" y="567" text-anchor="end" font-size="12" fill="#1f2430">nan | post 2014 | 10Y Term Premium</text><rect x="873.34" y="555" width="1.00" height="16" fill="#c8553d" rx="2"/><text x="865.34" y="567" text-anchor="end" font-size="12" fill="#1f2430">-0.06</text><text x="268" y="591" text-anchor="end" font-size="12" fill="#1f2430">nan | post 2014 | 10Y Yield</text><rect x="874.21" y="579" width="1.00" height="16" fill="#1d3557" rx="2"/><text x="882.32" y="591" text-anchor="start" font-size="12" fill="#1f2430">0.01</text><text x="268" y="615" text-anchor="end" font-size="12" fill="#1f2430">nan | post 2020 | 10Y Term Premium</text><rect x="873.88" y="603" width="1.00" height="16" fill="#c8553d" rx="2"/><text x="865.88" y="615" text-anchor="end" font-size="12" fill="#1f2430">-0.02</text><text x="268" y="639" text-anchor="end" font-size="12" fill="#1f2430">nan | post 2020 | 10Y Yield</text><rect x="874.21" y="627" width="1.42" height="16" fill="#1d3557" rx="2"/><text x="883.63" y="639" text-anchor="start" font-size="12" fill="#1f2430">0.10</text><text x="268" y="663" text-anchor="end" font-size="12" fill="#1f2430">nan | exclude debt limit | 10Y Term Premium</text><rect x="874.21" y="651" width="1.47" height="16" fill="#1d3557" rx="2"/><text x="883.68" y="663" text-anchor="start" font-size="12" fill="#1f2430">0.10</text><text x="268" y="687" text-anchor="end" font-size="12" fill="#1f2430">nan | exclude debt limit | 10Y Yield</text><rect x="874.21" y="675" width="3.81" height="16" fill="#1d3557" rx="2"/><text x="886.01" y="687" text-anchor="start" font-size="12" fill="#1f2430">0.26</text><text x="268" y="711" text-anchor="end" font-size="12" fill="#1f2430">nan | post 2009 | 10Y Term Premium</text><rect x="870.69" y="699" width="3.52" height="16" fill="#c8553d" rx="2"/><text x="862.69" y="711" text-anchor="end" font-size="12" fill="#1f2430">-0.24</text><text x="268" y="735" text-anchor="end" font-size="12" fill="#1f2430">nan | post 2009 | 10Y Yield</text><rect x="866.94" y="723" width="7.27" height="16" fill="#c8553d" rx="2"/><text x="858.94" y="735" text-anchor="end" font-size="12" fill="#1f2430">-0.50</text><text x="268" y="759" text-anchor="end" font-size="12" fill="#1f2430">nan | post 2014 | 10Y Term Premium</text><rect x="870.00" y="747" width="4.21" height="16" fill="#c8553d" rx="2"/><text x="862.00" y="759" text-anchor="end" font-size="12" fill="#1f2430">-0.29</text><text x="268" y="783" text-anchor="end" font-size="12" fill="#1f2430">nan | post 2014 | 10Y Yield</text><rect x="865.07" y="771" width="9.14" height="16" fill="#c8553d" rx="2"/><text x="857.07" y="783" text-anchor="end" font-size="12" fill="#1f2430">-0.63</text><text x="268" y="807" text-anchor="end" font-size="12" fill="#1f2430">nan | post 2020 | 10Y Term Premium</text><rect x="871.04" y="795" width="3.17" height="16" fill="#c8553d" rx="2"/><text x="863.04" y="807" text-anchor="end" font-size="12" fill="#1f2430">-0.22</text><text x="268" y="831" text-anchor="end" font-size="12" fill="#1f2430">nan | post 2020 | 10Y Yield</text><rect x="867.32" y="819" width="6.89" height="16" fill="#c8553d" rx="2"/><text x="859.32" y="831" text-anchor="end" font-size="12" fill="#1f2430">-0.47</text><text x="268" y="855" text-anchor="end" font-size="12" fill="#1f2430">nan | exclude debt limit | 10Y Term Premium</text><rect x="871.73" y="843" width="2.48" height="16" fill="#c8553d" rx="2"/><text x="863.73" y="855" text-anchor="end" font-size="12" fill="#1f2430">-0.17</text><text x="268" y="879" text-anchor="end" font-size="12" fill="#1f2430">nan | exclude debt limit | 10Y Yield</text><rect x="869.40" y="867" width="4.81" height="16" fill="#c8553d" rx="2"/><text x="861.40" y="879" text-anchor="end" font-size="12" fill="#1f2430">-0.33</text><text x="268" y="903" text-anchor="end" font-size="12" fill="#1f2430">nan | post 2009 | 10Y Term Premium</text><rect x="874.21" y="891" width="1.17" height="16" fill="#1d3557" rx="2"/><text x="883.38" y="903" text-anchor="start" font-size="12" fill="#1f2430">0.08</text><text x="268" y="927" text-anchor="end" font-size="12" fill="#1f2430">nan | post 2009 | 10Y Yield</text><rect x="874.21" y="915" width="2.62" height="16" fill="#1d3557" rx="2"/><text x="884.83" y="927" text-anchor="start" font-size="12" fill="#1f2430">0.18</text><text x="268" y="951" text-anchor="end" font-size="12" fill="#1f2430">nan | post 2014 | 10Y Term Premium</text><rect x="874.21" y="939" width="1.00" height="16" fill="#1d3557" rx="2"/><text x="882.57" y="951" text-anchor="start" font-size="12" fill="#1f2430">0.02</text><text x="268" y="975" text-anchor="end" font-size="12" fill="#1f2430">nan | post 2014 | 10Y Yield</text><rect x="874.21" y="963" width="1.00" height="16" fill="#1d3557" rx="2"/><text x="882.86" y="975" text-anchor="start" font-size="12" fill="#1f2430">0.04</text><text x="268" y="999" text-anchor="end" font-size="12" fill="#1f2430">nan | post 2020 | 10Y Term Premium</text><rect x="874.21" y="987" width="1.00" height="16" fill="#1d3557" rx="2"/><text x="882.92" y="999" text-anchor="start" font-size="12" fill="#1f2430">0.05</text><text x="268" y="1023" text-anchor="end" font-size="12" fill="#1f2430">nan | post 2020 | 10Y Yield</text><rect x="874.21" y="1011" width="1.66" height="16" fill="#1d3557" rx="2"/><text x="883.87" y="1023" text-anchor="start" font-size="12" fill="#1f2430">0.11</text><text x="268" y="1047" text-anchor="end" font-size="12" fill="#1f2430">nan | exclude debt limit | 10Y Term Premium</text><rect x="873.23" y="1035" width="1.00" height="16" fill="#c8553d" rx="2"/><text x="865.23" y="1047" text-anchor="end" font-size="12" fill="#1f2430">-0.07</text><text x="268" y="1071" text-anchor="end" font-size="12" fill="#1f2430">nan | exclude debt limit | 10Y Yield</text><rect x="873.13" y="1059" width="1.08" height="16" fill="#c8553d" rx="2"/><text x="865.13" y="1071" text-anchor="end" font-size="12" fill="#1f2430">-0.07</text><text x="268" y="1095" text-anchor="end" font-size="12" fill="#1f2430">nan | post 2009 | 10Y Term Premium</text><rect x="874.21" y="1083" width="2.40" height="16" fill="#1d3557" rx="2"/><text x="884.61" y="1095" text-anchor="start" font-size="12" fill="#1f2430">0.16</text><text x="268" y="1119" text-anchor="end" font-size="12" fill="#1f2430">nan | post 2009 | 10Y Yield</text><rect x="874.21" y="1107" width="6.12" height="16" fill="#1d3557" rx="2"/><text x="888.33" y="1119" text-anchor="start" font-size="12" fill="#1f2430">0.42</text><text x="268" y="1143" text-anchor="end" font-size="12" fill="#1f2430">nan | post 2014 | 10Y Term Premium</text><rect x="874.21" y="1131" width="1.69" height="16" fill="#1d3557" rx="2"/><text x="883.89" y="1143" text-anchor="start" font-size="12" fill="#1f2430">0.12</text><text x="268" y="1167" text-anchor="end" font-size="12" fill="#1f2430">nan | post 2014 | 10Y Yield</text><rect x="874.21" y="1155" width="4.74" height="16" fill="#1d3557" rx="2"/><text x="886.95" y="1167" text-anchor="start" font-size="12" fill="#1f2430">0.32</text><text x="268" y="1191" text-anchor="end" font-size="12" fill="#1f2430">nan | post 2020 | 10Y Term Premium</text><rect x="874.21" y="1179" width="1.00" height="16" fill="#1d3557" rx="2"/><text x="882.80" y="1191" text-anchor="start" font-size="12" fill="#1f2430">0.04</text><text x="268" y="1215" text-anchor="end" font-size="12" fill="#1f2430">nan | post 2020 | 10Y Yield</text><rect x="874.21" y="1203" width="2.88" height="16" fill="#1d3557" rx="2"/><text x="885.09" y="1215" text-anchor="start" font-size="12" fill="#1f2430">0.20</text><text x="268" y="1239" text-anchor="end" font-size="12" fill="#1f2430">nan | exclude debt limit | 10Y Term Premium</text><rect x="874.21" y="1227" width="2.04" height="16" fill="#1d3557" rx="2"/><text x="884.25" y="1239" text-anchor="start" font-size="12" fill="#1f2430">0.14</text><text x="268" y="1263" text-anchor="end" font-size="12" fill="#1f2430">nan | exclude debt limit | 10Y Yield</text><rect x="874.21" y="1251" width="7.10" height="16" fill="#1d3557" rx="2"/><text x="889.31" y="1263" text-anchor="start" font-size="12" fill="#1f2430">0.49</text><text x="268" y="1287" text-anchor="end" font-size="12" fill="#1f2430">nan | post 2009 | 10Y Term Premium</text><rect x="868.31" y="1275" width="5.90" height="16" fill="#c8553d" rx="2"/><text x="860.31" y="1287" text-anchor="end" font-size="12" fill="#1f2430">-0.40</text><text x="268" y="1311" text-anchor="end" font-size="12" fill="#1f2430">nan | post 2009 | 10Y Yield</text><rect x="860.96" y="1299" width="13.25" height="16" fill="#c8553d" rx="2"/><text x="852.96" y="1311" text-anchor="end" font-size="12" fill="#1f2430">-0.91</text><text x="268" y="1335" text-anchor="end" font-size="12" fill="#1f2430">nan | post 2014 | 10Y Term Premium</text><rect x="868.55" y="1323" width="5.66" height="16" fill="#c8553d" rx="2"/><text x="860.55" y="1335" text-anchor="end" font-size="12" fill="#1f2430">-0.39</text><text x="268" y="1359" text-anchor="end" font-size="12" fill="#1f2430">nan | post 2014 | 10Y Yield</text><rect x="860.59" y="1347" width="13.62" height="16" fill="#c8553d" rx="2"/><text x="852.59" y="1359" text-anchor="end" font-size="12" fill="#1f2430">-0.93</text><text x="268" y="1383" text-anchor="end" font-size="12" fill="#1f2430">nan | post 2020 | 10Y Term Premium</text><rect x="859.05" y="1371" width="15.16" height="16" fill="#c8553d" rx="2"/><text x="851.05" y="1383" text-anchor="end" font-size="12" fill="#1f2430">-1.04</text><text x="268" y="1407" text-anchor="end" font-size="12" fill="#1f2430">nan | post 2020 | 10Y Yield</text><rect x="841.24" y="1395" width="32.97" height="16" fill="#c8553d" rx="2"/><text x="833.24" y="1407" text-anchor="end" font-size="12" fill="#1f2430">-2.26</text><text x="268" y="1431" text-anchor="end" font-size="12" fill="#1f2430">nan | exclude debt limit | 10Y Term Premium</text><rect x="859.57" y="1419" width="14.64" height="16" fill="#c8553d" rx="2"/><text x="851.57" y="1431" text-anchor="end" font-size="12" fill="#1f2430">-1.00</text><text x="268" y="1455" text-anchor="end" font-size="12" fill="#1f2430">nan | exclude debt limit | 10Y Yield</text><rect x="844.49" y="1443" width="29.71" height="16" fill="#c8553d" rx="2"/><text x="836.49" y="1455" text-anchor="end" font-size="12" fill="#1f2430">-2.03</text><text x="268" y="1479" text-anchor="end" font-size="12" fill="#1f2430">nan | post 2009 | 10Y Term Premium</text><rect x="869.69" y="1467" width="4.52" height="16" fill="#c8553d" rx="2"/><text x="861.69" y="1479" text-anchor="end" font-size="12" fill="#1f2430">-0.31</text><text x="268" y="1503" text-anchor="end" font-size="12" fill="#1f2430">nan | post 2009 | 10Y Yield</text><rect x="863.26" y="1491" width="10.95" height="16" fill="#c8553d" rx="2"/><text x="855.26" y="1503" text-anchor="end" font-size="12" fill="#1f2430">-0.75</text><text x="268" y="1527" text-anchor="end" font-size="12" fill="#1f2430">nan | post 2014 | 10Y Term Premium</text><rect x="868.25" y="1515" width="5.96" height="16" fill="#c8553d" rx="2"/><text x="860.25" y="1527" text-anchor="end" font-size="12" fill="#1f2430">-0.41</text><text x="268" y="1551" text-anchor="end" font-size="12" fill="#1f2430">nan | post 2014 | 10Y Yield</text><rect x="860.88" y="1539" width="13.33" height="16" fill="#c8553d" rx="2"/><text x="852.88" y="1551" text-anchor="end" font-size="12" fill="#1f2430">-0.91</text><text x="268" y="1575" text-anchor="end" font-size="12" fill="#1f2430">nan | post 2020 | 10Y Term Premium</text><rect x="862.42" y="1563" width="11.79" height="16" fill="#c8553d" rx="2"/><text x="854.42" y="1575" text-anchor="end" font-size="12" fill="#1f2430">-0.81</text><text x="268" y="1599" text-anchor="end" font-size="12" fill="#1f2430">nan | post 2020 | 10Y Yield</text><rect x="848.60" y="1587" width="25.61" height="16" fill="#c8553d" rx="2"/><text x="840.60" y="1599" text-anchor="end" font-size="12" fill="#1f2430">-1.75</text><text x="268" y="1623" text-anchor="end" font-size="12" fill="#1f2430">nan | exclude debt limit | 10Y Term Premium</text><rect x="863.68" y="1611" width="10.53" height="16" fill="#c8553d" rx="2"/><text x="855.68" y="1623" text-anchor="end" font-size="12" fill="#1f2430">-0.72</text><text x="268" y="1647" text-anchor="end" font-size="12" fill="#1f2430">nan | exclude debt limit | 10Y Yield</text><rect x="851.18" y="1635" width="23.03" height="16" fill="#c8553d" rx="2"/><text x="843.18" y="1647" text-anchor="end" font-size="12" fill="#1f2430">-1.58</text><text x="268" y="1671" text-anchor="end" font-size="12" fill="#1f2430">nan | post 2009 | 10Y Term Premium</text><rect x="833.20" y="1659" width="41.01" height="16" fill="#c8553d" rx="2"/><text x="825.20" y="1671" text-anchor="end" font-size="12" fill="#1f2430">-2.81</text><text x="268" y="1695" text-anchor="end" font-size="12" fill="#1f2430">nan | post 2009 | 10Y Yield</text><rect x="798.19" y="1683" width="76.02" height="16" fill="#c8553d" rx="2"/><text x="790.19" y="1695" text-anchor="end" font-size="12" fill="#1f2430">-5.20</text><text x="268" y="1719" text-anchor="end" font-size="12" fill="#1f2430">nan | post 2014 | 10Y Term Premium</text><rect x="843.50" y="1707" width="30.71" height="16" fill="#c8553d" rx="2"/><text x="835.50" y="1719" text-anchor="end" font-size="12" fill="#1f2430">-2.10</text><text x="268" y="1743" text-anchor="end" font-size="12" fill="#1f2430">nan | post 2014 | 10Y Yield</text><rect x="817.57" y="1731" width="56.64" height="16" fill="#c8553d" rx="2"/><text x="809.57" y="1743" text-anchor="end" font-size="12" fill="#1f2430">-3.87</text><text x="268" y="1767" text-anchor="end" font-size="12" fill="#1f2430">nan | post 2020 | 10Y Term Premium</text><rect x="844.61" y="1755" width="29.60" height="16" fill="#c8553d" rx="2"/><text x="836.61" y="1767" text-anchor="end" font-size="12" fill="#1f2430">-2.03</text><text x="268" y="1791" text-anchor="end" font-size="12" fill="#1f2430">nan | post 2020 | 10Y Yield</text><rect x="819.71" y="1779" width="54.50" height="16" fill="#c8553d" rx="2"/><text x="811.71" y="1791" text-anchor="end" font-size="12" fill="#1f2430">-3.73</text><text x="268" y="1815" text-anchor="end" font-size="12" fill="#1f2430">nan | exclude debt limit | 10Y Term Premium</text><rect x="819.84" y="1803" width="54.37" height="16" fill="#c8553d" rx="2"/><text x="811.84" y="1815" text-anchor="end" font-size="12" fill="#1f2430">-3.72</text><text x="268" y="1839" text-anchor="end" font-size="12" fill="#1f2430">nan | exclude debt limit | 10Y Yield</text><rect x="771.20" y="1827" width="103.01" height="16" fill="#c8553d" rx="2"/><text x="763.20" y="1839" text-anchor="end" font-size="12" fill="#1f2430">-7.05</text><text x="268" y="1863" text-anchor="end" font-size="12" fill="#1f2430">nan | post 2009 | 10Y Term Premium</text><rect x="874.21" y="1851" width="11.89" height="16" fill="#1d3557" rx="2"/><text x="894.10" y="1863" text-anchor="start" font-size="12" fill="#1f2430">0.81</text><text x="268" y="1887" text-anchor="end" font-size="12" fill="#1f2430">nan | post 2009 | 10Y Yield</text><rect x="874.21" y="1875" width="21.28" height="16" fill="#1d3557" rx="2"/><text x="903.49" y="1887" text-anchor="start" font-size="12" fill="#1f2430">1.46</text><text x="268" y="1911" text-anchor="end" font-size="12" fill="#1f2430">nan | post 2014 | 10Y Term Premium</text><rect x="858.74" y="1899" width="15.47" height="16" fill="#c8553d" rx="2"/><text x="850.74" y="1911" text-anchor="end" font-size="12" fill="#1f2430">-1.06</text><text x="268" y="1935" text-anchor="end" font-size="12" fill="#1f2430">nan | post 2014 | 10Y Yield</text><rect x="847.38" y="1923" width="26.83" height="16" fill="#c8553d" rx="2"/><text x="839.38" y="1935" text-anchor="end" font-size="12" fill="#1f2430">-1.84</text><text x="268" y="1959" text-anchor="end" font-size="12" fill="#1f2430">nan | post 2020 | 10Y Term Premium</text><rect x="867.83" y="1947" width="6.38" height="16" fill="#c8553d" rx="2"/><text x="859.83" y="1959" text-anchor="end" font-size="12" fill="#1f2430">-0.44</text><text x="268" y="1983" text-anchor="end" font-size="12" fill="#1f2430">nan | post 2020 | 10Y Yield</text><rect x="862.67" y="1971" width="11.54" height="16" fill="#c8553d" rx="2"/><text x="854.67" y="1983" text-anchor="end" font-size="12" fill="#1f2430">-0.79</text><text x="268" y="2007" text-anchor="end" font-size="12" fill="#1f2430">nan | exclude debt limit | 10Y Term Premium</text><rect x="874.21" y="1995" width="8.91" height="16" fill="#1d3557" rx="2"/><text x="891.12" y="2007" text-anchor="start" font-size="12" fill="#1f2430">0.61</text><text x="268" y="2031" text-anchor="end" font-size="12" fill="#1f2430">nan | exclude debt limit | 10Y Yield</text><rect x="874.21" y="2019" width="16.02" height="16" fill="#1d3557" rx="2"/><text x="898.23" y="2031" text-anchor="start" font-size="12" fill="#1f2430">1.10</text><text x="268" y="2055" text-anchor="end" font-size="12" fill="#1f2430">nan | post 2009 | 10Y Term Premium</text><rect x="872.98" y="2043" width="1.23" height="16" fill="#c8553d" rx="2"/><text x="864.98" y="2055" text-anchor="end" font-size="12" fill="#1f2430">-0.08</text><text x="268" y="2079" text-anchor="end" font-size="12" fill="#1f2430">nan | post 2009 | 10Y Yield</text><rect x="874.21" y="2067" width="8.11" height="16" fill="#1d3557" rx="2"/><text x="890.32" y="2079" text-anchor="start" font-size="12" fill="#1f2430">0.55</text><text x="268" y="2103" text-anchor="end" font-size="12" fill="#1f2430">nan | post 2014 | 10Y Term Premium</text><rect x="753.78" y="2091" width="120.43" height="16" fill="#c8553d" rx="2"/><text x="745.78" y="2103" text-anchor="end" font-size="12" fill="#1f2430">-8.24</text><text x="268" y="2127" text-anchor="end" font-size="12" fill="#1f2430">nan | post 2014 | 10Y Yield</text><rect x="674.72" y="2115" width="199.49" height="16" fill="#c8553d" rx="2"/><text x="666.72" y="2127" text-anchor="end" font-size="12" fill="#1f2430">-13.65</text><text x="268" y="2151" text-anchor="end" font-size="12" fill="#1f2430">nan | post 2020 | 10Y Term Premium</text><rect x="874.21" y="2139" width="23.22" height="16" fill="#1d3557" rx="2"/><text x="905.43" y="2151" text-anchor="start" font-size="12" fill="#1f2430">1.59</text><text x="268" y="2175" text-anchor="end" font-size="12" fill="#1f2430">nan | post 2020 | 10Y Yield</text><rect x="874.21" y="2163" width="49.79" height="16" fill="#1d3557" rx="2"/><text x="932.00" y="2175" text-anchor="start" font-size="12" fill="#1f2430">3.41</text><text x="268" y="2199" text-anchor="end" font-size="12" fill="#1f2430">nan | exclude debt limit | 10Y Term Premium</text><rect x="585.62" y="2187" width="288.59" height="16" fill="#c8553d" rx="2"/><text x="577.62" y="2199" text-anchor="end" font-size="12" fill="#1f2430">-19.74</text><text x="268" y="2223" text-anchor="end" font-size="12" fill="#1f2430">nan | exclude debt limit | 10Y Yield</text><rect x="432.06" y="2211" width="442.15" height="16" fill="#c8553d" rx="2"/><text x="424.06" y="2223" text-anchor="end" font-size="12" fill="#1f2430">-30.25</text></svg>