<svg xmlns="http://www.w3.org/2000/svg" width="960" height="2280" viewBox="0 0 960 2280" role="img"><rect width="960" height="2280" fill="#fbfaf5"/><text x="280" y="44" font-size="24" font-weight="700" fill="#1f2430">Pricing Context Coefficients</text><text x="280" y="62" font-size="13" fill="#1f2430">Coefficients are reported in basis points per $100bn on the named input; +63bd is the primary release-level scalar.</text><line x1="903.40" y1="66" x2="903.40" y2="2244" stroke="#1f2430" stroke-width="1.4"/><line x1="280.00" y1="66" x2="280.00" y2="2244" stroke="#d7d2c6" stroke-width="1"/><text x="280.00" y="2268" text-anchor="middle" font-size="12" fill="#1f2430">-44.1</text><line x1="441.00" y1="66" x2="441.00" y2="2244" stroke="#d7d2c6" stroke-width="1"/><text x="441.00" y="2268" text-anchor="middle" font-size="12" fill="#1f2430">-32.7</text><line x1="602.00" y1="66" x2="602.00" y2="2244" stroke="#d7d2c6" stroke-width="1"/><text x="602.00" y="2268" text-anchor="middle" font-size="12" fill="#1f2430">-21.3</text><line x1="763.00" y1="66" x2="763.00" y2="2244" stroke="#d7d2c6" stroke-width="1"/><text x="763.00" y="2268" text-anchor="middle" font-size="12" fill="#1f2430">-9.9</text><line x1="924.00" y1="66" x2="924.00" y2="2244" stroke="#d7d2c6" stroke-width="1"/><text x="924.00" y="2268" text-anchor="middle" font-size="12" fill="#1f2430">1.5</text><text x="268" y="87" text-anchor="end" font-size="12" fill="#1f2430">Release flow (+1bd) | 10Y Term Premium</text><rect x="902.83" y="75" width="1.00" height="16" fill="#c8553d" rx="2"/><text x="894.83" y="87" text-anchor="end" font-size="12" fill="#1f2430">-0.04</text><text x="268" y="111" text-anchor="end" font-size="12" fill="#1f2430">Release flow (+1bd) | 10Y Yield</text><rect x="903.40" y="99" width="1.00" height="16" fill="#1d3557" rx="2"/><text x="912.22" y="111" text-anchor="start" font-size="12" fill="#1f2430">0.06</text><text x="268" y="135" text-anchor="end" font-size="12" fill="#1f2430">Release flow (+5bd) | 10Y Term Premium</text><rect x="899.99" y="123" width="3.41" height="16" fill="#c8553d" rx="2"/><text x="891.99" y="135" text-anchor="end" font-size="12" fill="#1f2430">-0.24</text><text x="268" y="159" text-anchor="end" font-size="12" fill="#1f2430">Release flow (+5bd) | 10Y Yield</text><rect x="896.36" y="147" width="7.04" height="16" fill="#c8553d" rx="2"/><text x="888.36" y="159" text-anchor="end" font-size="12" fill="#1f2430">-0.50</text><text x="268" y="183" text-anchor="end" font-size="12" fill="#1f2430">Release flow (+10bd) | 10Y Term Premium</text><rect x="903.40" y="171" width="1.14" height="16" fill="#1d3557" rx="2"/><text x="912.54" y="183" text-anchor="start" font-size="12" fill="#1f2430">0.08</text><text x="268" y="207" text-anchor="end" font-size="12" fill="#1f2430">Release flow (+10bd) | 10Y Yield</text><rect x="903.40" y="195" width="2.54" height="16" fill="#1d3557" rx="2"/><text x="913.94" y="207" text-anchor="start" font-size="12" fill="#1f2430">0.18</text><text x="268" y="231" text-anchor="end" font-size="12" fill="#1f2430">Release flow (+21bd) | 10Y Term Premium</text><rect x="903.40" y="219" width="2.32" height="16" fill="#1d3557" rx="2"/><text x="913.72" y="231" text-anchor="start" font-size="12" fill="#1f2430">0.16</text><text x="268" y="255" text-anchor="end" font-size="12" fill="#1f2430">Release flow (+21bd) | 10Y Yield</text><rect x="903.40" y="243" width="5.92" height="16" fill="#1d3557" rx="2"/><text x="917.32" y="255" text-anchor="start" font-size="12" fill="#1f2430">0.42</text><text x="268" y="279" text-anchor="end" font-size="12" fill="#1f2430">Release flow (+42bd) | 10Y Term Premium</text><rect x="897.69" y="267" width="5.71" height="16" fill="#c8553d" rx="2"/><text x="889.69" y="279" text-anchor="end" font-size="12" fill="#1f2430">-0.40</text><text x="268" y="303" text-anchor="end" font-size="12" fill="#1f2430">Release flow (+42bd) | 10Y Yield</text><rect x="890.57" y="291" width="12.83" height="16" fill="#c8553d" rx="2"/><text x="882.57" y="303" text-anchor="end" font-size="12" fill="#1f2430">-0.91</text><text x="268" y="327" text-anchor="end" font-size="12" fill="#1f2430">Release flow (+63bd anchor) | 10Y Term Premium</text><rect x="899.03" y="315" width="4.37" height="16" fill="#c8553d" rx="2"/><text x="891.03" y="327" text-anchor="end" font-size="12" fill="#1f2430">-0.31</text><text x="268" y="351" text-anchor="end" font-size="12" fill="#1f2430">Release flow (+63bd anchor) | 10Y Yield</text><rect x="892.80" y="339" width="10.60" height="16" fill="#c8553d" rx="2"/><text x="884.80" y="351" text-anchor="end" font-size="12" fill="#1f2430">-0.75</text><text x="268" y="375" text-anchor="end" font-size="12" fill="#1f2430">Flow baseline | 10Y Term Premium</text><rect x="863.70" y="363" width="39.70" height="16" fill="#c8553d" rx="2"/><text x="855.70" y="375" text-anchor="end" font-size="12" fill="#1f2430">-2.81</text><text x="268" y="399" text-anchor="end" font-size="12" fill="#1f2430">Flow baseline | 10Y Yield</text><rect x="829.80" y="387" width="73.60" height="16" fill="#c8553d" rx="2"/><text x="821.80" y="399" text-anchor="end" font-size="12" fill="#1f2430">-5.20</text><text x="268" y="423" text-anchor="end" font-size="12" fill="#1f2430">Stock baseline | 10Y Term Premium</text><rect x="903.40" y="411" width="11.51" height="16" fill="#1d3557" rx="2"/><text x="922.91" y="423" text-anchor="start" font-size="12" fill="#1f2430">0.81</text><text x="268" y="447" text-anchor="end" font-size="12" fill="#1f2430">Stock baseline | 10Y Yield</text><rect x="903.40" y="435" width="20.60" height="16" fill="#1d3557" rx="2"/><text x="932.00" y="447" text-anchor="start" font-size="12" fill="#1f2430">1.46</text><text x="268" y="471" text-anchor="end" font-size="12" fill="#1f2430">Duration baseline | 10Y Term Premium</text><rect x="534.34" y="459" width="369.06" height="16" fill="#c8553d" rx="2"/><text x="526.34" y="471" text-anchor="end" font-size="12" fill="#1f2430">-26.08</text><text x="268" y="495" text-anchor="end" font-size="12" fill="#1f2430">Duration baseline | 10Y Yield</text><rect x="280.00" y="483" width="623.40" height="16" fill="#c8553d" rx="2"/><text x="272.00" y="495" text-anchor="end" font-size="12" fill="#1f2430">-44.05</text><text x="268" y="519" text-anchor="end" font-size="12" fill="#1f2430">nan | post 2009 | 10Y Term Premium</text><rect x="902.83" y="507" width="1.00" height="16" fill="#c8553d" rx="2"/><text x="894.83" y="519" text-anchor="end" font-size="12" fill="#1f2430">-0.04</text><text x="268" y="543" text-anchor="end" font-size="12" fill="#1f2430">nan | post 2009 | 10Y Yield</text><rect x="903.40" y="531" width="1.00" height="16" fill="#1d3557" rx="2"/><text x="912.22" y="543" text-anchor="start" font-size="12" fill="#1f2430">0.06</text><text x="268" y="567" text-anchor="end" font-size="12" fill="#1f2430">nan | post 2014 | 10Y Term Premium</text><rect x="902.56" y="555" width="1.00" height="16" fill="#c8553d" rx="2"/><text x="894.56" y="567" text-anchor="end" font-size="12" fill="#1f2430">-0.06</text><text x="268" y="591" text-anchor="end" font-size="12" fill="#1f2430">nan | post 2014 | 10Y Yield</text><rect x="903.40" y="579" width="1.00" height="16" fill="#1d3557" rx="2"/><text x="911.51" y="591" text-anchor="start" font-size="12" fill="#1f2430">0.01</text><text x="268" y="615" text-anchor="end" font-size="12" fill="#1f2430">nan | post 2020 | 10Y Term Premium</text><rect x="903.08" y="603" width="1.00" height="16" fill="#c8553d" rx="2"/><text x="895.08" y="615" text-anchor="end" font-size="12" fill="#1f2430">-0.02</text><text x="268" y="639" text-anchor="end" font-size="12" fill="#1f2430">nan | post 2020 | 10Y Yield</text><rect x="903.40" y="627" width="1.38" height="16" fill="#1d3557" rx="2"/><text x="912.78" y="639" text-anchor="start" font-size="12" fill="#1f2430">0.10</text><text x="268" y="663" text-anchor="end" font-size="12" fill="#1f2430">nan | exclude debt limit | 10Y Term Premium</text><rect x="903.40" y="651" width="1.43" height="16" fill="#1d3557" rx="2"/><text x="912.83" y="663" text-anchor="start" font-size="12" fill="#1f2430">0.10</text><text x="268" y="687" text-anchor="end" font-size="12" fill="#1f2430">nan | exclude debt limit | 10Y Yield</text><rect x="903.40" y="675" width="3.68" height="16" fill="#1d3557" rx="2"/><text x="915.08" y="687" text-anchor="start" font-size="12" fill="#1f2430">0.26</text><text x="268" y="711" text-anchor="end" font-size="12" fill="#1f2430">nan | post 2009 | 10Y Term Premium</text><rect x="899.99" y="699" width="3.41" height="16" fill="#c8553d" rx="2"/><text x="891.99" y="711" text-anchor="end" font-size="12" fill="#1f2430">-0.24</text><text x="268" y="735" text-anchor="end" font-size="12" fill="#1f2430">nan | post 2009 | 10Y Yield</text><rect x="896.36" y="723" width="7.04" height="16" fill="#c8553d" rx="2"/><text x="888.36" y="735" text-anchor="end" font-size="12" fill="#1f2430">-0.50</text><text x="268" y="759" text-anchor="end" font-size="12" fill="#1f2430">nan | post 2014 | 10Y Term Premium</text><rect x="899.32" y="747" width="4.08" height="16" fill="#c8553d" rx="2"/><text x="891.32" y="759" text-anchor="end" font-size="12" fill="#1f2430">-0.29</text><text x="268" y="783" text-anchor="end" font-size="12" fill="#1f2430">nan | post 2014 | 10Y Yield</text><rect x="894.55" y="771" width="8.85" height="16" fill="#c8553d" rx="2"/><text x="886.55" y="783" text-anchor="end" font-size="12" fill="#1f2430">-0.63</text><text x="268" y="807" text-anchor="end" font-size="12" fill="#1f2430">nan | post 2020 | 10Y Term Premium</text><rect x="900.34" y="795" width="3.06" height="16" fill="#c8553d" rx="2"/><text x="892.34" y="807" text-anchor="end" font-size="12" fill="#1f2430">-0.22</text><text x="268" y="831" text-anchor="end" font-size="12" fill="#1f2430">nan | post 2020 | 10Y Yield</text><rect x="896.73" y="819" width="6.67" height="16" fill="#c8553d" rx="2"/><text x="888.73" y="831" text-anchor="end" font-size="12" fill="#1f2430">-0.47</text><text x="268" y="855" text-anchor="end" font-size="12" fill="#1f2430">nan | exclude debt limit | 10Y Term Premium</text><rect x="901.00" y="843" width="2.40" height="16" fill="#c8553d" rx="2"/><text x="893.00" y="855" text-anchor="end" font-size="12" fill="#1f2430">-0.17</text><text x="268" y="879" text-anchor="end" font-size="12" fill="#1f2430">nan | exclude debt limit | 10Y Yield</text><rect x="898.74" y="867" width="4.66" height="16" fill="#c8553d" rx="2"/><text x="890.74" y="879" text-anchor="end" font-size="12" fill="#1f2430">-0.33</text><text x="268" y="903" text-anchor="end" font-size="12" fill="#1f2430">nan | post 2009 | 10Y Term Premium</text><rect x="903.40" y="891" width="1.14" height="16" fill="#1d3557" rx="2"/><text x="912.54" y="903" text-anchor="start" font-size="12" fill="#1f2430">0.08</text><text x="268" y="927" text-anchor="end" font-size="12" fill="#1f2430">nan | post 2009 | 10Y Yield</text><rect x="903.40" y="915" width="2.54" height="16" fill="#1d3557" rx="2"/><text x="913.94" y="927" text-anchor="start" font-size="12" fill="#1f2430">0.18</text><text x="268" y="951" text-anchor="end" font-size="12" fill="#1f2430">nan | post 2014 | 10Y Term Premium</text><rect x="903.40" y="939" width="1.00" height="16" fill="#1d3557" rx="2"/><text x="911.75" y="951" text-anchor="start" font-size="12" fill="#1f2430">0.02</text><text x="268" y="975" text-anchor="end" font-size="12" fill="#1f2430">nan | post 2014 | 10Y Yield</text><rect x="903.40" y="963" width="1.00" height="16" fill="#1d3557" rx="2"/><text x="912.03" y="975" text-anchor="start" font-size="12" fill="#1f2430">0.04</text><text x="268" y="999" text-anchor="end" font-size="12" fill="#1f2430">nan | post 2020 | 10Y Term Premium</text><rect x="903.40" y="987" width="1.00" height="16" fill="#1d3557" rx="2"/><text x="912.09" y="999" text-anchor="start" font-size="12" fill="#1f2430">0.05</text><text x="268" y="1023" text-anchor="end" font-size="12" fill="#1f2430">nan | post 2020 | 10Y Yield</text><rect x="903.40" y="1011" width="1.61" height="16" fill="#1d3557" rx="2"/><text x="913.01" y="1023" text-anchor="start" font-size="12" fill="#1f2430">0.11</text><text x="268" y="1047" text-anchor="end" font-size="12" fill="#1f2430">nan | exclude debt limit | 10Y Term Premium</text><rect x="902.46" y="1035" width="1.00" height="16" fill="#c8553d" rx="2"/><text x="894.46" y="1047" text-anchor="end" font-size="12" fill="#1f2430">-0.07</text><text x="268" y="1071" text-anchor="end" font-size="12" fill="#1f2430">nan | exclude debt limit | 10Y Yield</text><rect x="902.35" y="1059" width="1.05" height="16" fill="#c8553d" rx="2"/><text x="894.35" y="1071" text-anchor="end" font-size="12" fill="#1f2430">-0.07</text><text x="268" y="1095" text-anchor="end" font-size="12" fill="#1f2430">nan | post 2009 | 10Y Term Premium</text><rect x="903.40" y="1083" width="2.32" height="16" fill="#1d3557" rx="2"/><text x="913.72" y="1095" text-anchor="start" font-size="12" fill="#1f2430">0.16</text><text x="268" y="1119" text-anchor="end" font-size="12" fill="#1f2430">nan | post 2009 | 10Y Yield</text><rect x="903.40" y="1107" width="5.92" height="16" fill="#1d3557" rx="2"/><text x="917.32" y="1119" text-anchor="start" font-size="12" fill="#1f2430">0.42</text><text x="268" y="1143" text-anchor="end" font-size="12" fill="#1f2430">nan | post 2014 | 10Y Term Premium</text><rect x="903.40" y="1131" width="1.63" height="16" fill="#1d3557" rx="2"/><text x="913.03" y="1143" text-anchor="start" font-size="12" fill="#1f2430">0.12</text><text x="268" y="1167" text-anchor="end" font-size="12" fill="#1f2430">nan | post 2014 | 10Y Yield</text><rect x="903.40" y="1155" width="4.59" height="16" fill="#1d3557" rx="2"/><text x="915.99" y="1167" text-anchor="start" font-size="12" fill="#1f2430">0.32</text><text x="268" y="1191" text-anchor="end" font-size="12" fill="#1f2430">nan | post 2020 | 10Y Term Premium</text><rect x="903.40" y="1179" width="1.00" height="16" fill="#1d3557" rx="2"/><text x="911.97" y="1191" text-anchor="start" font-size="12" fill="#1f2430">0.04</text><text x="268" y="1215" text-anchor="end" font-size="12" fill="#1f2430">nan | post 2020 | 10Y Yield</text><rect x="903.40" y="1203" width="2.79" height="16" fill="#1d3557" rx="2"/><text x="914.19" y="1215" text-anchor="start" font-size="12" fill="#1f2430">0.20</text><text x="268" y="1239" text-anchor="end" font-size="12" fill="#1f2430">nan | exclude debt limit | 10Y Term Premium</text><rect x="903.40" y="1227" width="1.97" height="16" fill="#1d3557" rx="2"/><text x="913.37" y="1239" text-anchor="start" font-size="12" fill="#1f2430">0.14</text><text x="268" y="1263" text-anchor="end" font-size="12" fill="#1f2430">nan | exclude debt limit | 10Y Yield</text><rect x="903.40" y="1251" width="6.87" height="16" fill="#1d3557" rx="2"/><text x="918.27" y="1263" text-anchor="start" font-size="12" fill="#1f2430">0.49</text><text x="268" y="1287" text-anchor="end" font-size="12" fill="#1f2430">nan | post 2009 | 10Y Term Premium</text><rect x="897.69" y="1275" width="5.71" height="16" fill="#c8553d" rx="2"/><text x="889.69" y="1287" text-anchor="end" font-size="12" fill="#1f2430">-0.40</text><text x="268" y="1311" text-anchor="end" font-size="12" fill="#1f2430">nan | post 2009 | 10Y Yield</text><rect x="890.57" y="1299" width="12.83" height="16" fill="#c8553d" rx="2"/><text x="882.57" y="1311" text-anchor="end" font-size="12" fill="#1f2430">-0.91</text><text x="268" y="1335" text-anchor="end" font-size="12" fill="#1f2430">nan | post 2014 | 10Y Term Premium</text><rect x="897.92" y="1323" width="5.48" height="16" fill="#c8553d" rx="2"/><text x="889.92" y="1335" text-anchor="end" font-size="12" fill="#1f2430">-0.39</text><text x="268" y="1359" text-anchor="end" font-size="12" fill="#1f2430">nan | post 2014 | 10Y Yield</text><rect x="890.22" y="1347" width="13.18" height="16" fill="#c8553d" rx="2"/><text x="882.22" y="1359" text-anchor="end" font-size="12" fill="#1f2430">-0.93</text><text x="268" y="1383" text-anchor="end" font-size="12" fill="#1f2430">nan | post 2020 | 10Y Term Premium</text><rect x="888.72" y="1371" width="14.68" height="16" fill="#c8553d" rx="2"/><text x="880.72" y="1383" text-anchor="end" font-size="12" fill="#1f2430">-1.04</text><text x="268" y="1407" text-anchor="end" font-size="12" fill="#1f2430">nan | post 2020 | 10Y Yield</text><rect x="871.48" y="1395" width="31.92" height="16" fill="#c8553d" rx="2"/><text x="863.48" y="1407" text-anchor="end" font-size="12" fill="#1f2430">-2.26</text><text x="268" y="1431" text-anchor="end" font-size="12" fill="#1f2430">nan | exclude debt limit | 10Y Term Premium</text><rect x="889.23" y="1419" width="14.17" height="16" fill="#c8553d" rx="2"/><text x="881.23" y="1431" text-anchor="end" font-size="12" fill="#1f2430">-1.00</text><text x="268" y="1455" text-anchor="end" font-size="12" fill="#1f2430">nan | exclude debt limit | 10Y Yield</text><rect x="874.63" y="1443" width="28.77" height="16" fill="#c8553d" rx="2"/><text x="866.63" y="1455" text-anchor="end" font-size="12" fill="#1f2430">-2.03</text><text x="268" y="1479" text-anchor="end" font-size="12" fill="#1f2430">nan | post 2009 | 10Y Term Premium</text><rect x="899.03" y="1467" width="4.37" height="16" fill="#c8553d" rx="2"/><text x="891.03" y="1479" text-anchor="end" font-size="12" fill="#1f2430">-0.31</text><text x="268" y="1503" text-anchor="end" font-size="12" fill="#1f2430">nan | post 2009 | 10Y Yield</text><rect x="892.80" y="1491" width="10.60" height="16" fill="#c8553d" rx="2"/><text x="884.80" y="1503" text-anchor="end" font-size="12" fill="#1f2430">-0.75</text><text x="268" y="1527" text-anchor="end" font-size="12" fill="#1f2430">nan | post 2014 | 10Y Term Premium</text><rect x="897.63" y="1515" width="5.77" height="16" fill="#c8553d" rx="2"/><text x="889.63" y="1527" text-anchor="end" font-size="12" fill="#1f2430">-0.41</text><text x="268" y="1551" text-anchor="end" font-size="12" fill="#1f2430">nan | post 2014 | 10Y Yield</text><rect x="890.49" y="1539" width="12.91" height="16" fill="#c8553d" rx="2"/><text x="882.49" y="1551" text-anchor="end" font-size="12" fill="#1f2430">-0.91</text><text x="268" y="1575" text-anchor="end" font-size="12" fill="#1f2430">nan | post 2020 | 10Y Term Premium</text><rect x="891.99" y="1563" width="11.41" height="16" fill="#c8553d" rx="2"/><text x="883.99" y="1575" text-anchor="end" font-size="12" fill="#1f2430">-0.81</text><text x="268" y="1599" text-anchor="end" font-size="12" fill="#1f2430">nan | post 2020 | 10Y Yield</text><rect x="878.61" y="1587" width="24.79" height="16" fill="#c8553d" rx="2"/><text x="870.61" y="1599" text-anchor="end" font-size="12" fill="#1f2430">-1.75</text><text x="268" y="1623" text-anchor="end" font-size="12" fill="#1f2430">nan | exclude debt limit | 10Y Term Premium</text><rect x="893.20" y="1611" width="10.20" height="16" fill="#c8553d" rx="2"/><text x="885.20" y="1623" text-anchor="end" font-size="12" fill="#1f2430">-0.72</text><text x="268" y="1647" text-anchor="end" font-size="12" fill="#1f2430">nan | exclude debt limit | 10Y Yield</text><rect x="881.11" y="1635" width="22.29" height="16" fill="#c8553d" rx="2"/><text x="873.11" y="1647" text-anchor="end" font-size="12" fill="#1f2430">-1.58</text><text x="268" y="1671" text-anchor="end" font-size="12" fill="#1f2430">nan | post 2009 | 10Y Term Premium</text><rect x="863.70" y="1659" width="39.70" height="16" fill="#c8553d" rx="2"/><text x="855.70" y="1671" text-anchor="end" font-size="12" fill="#1f2430">-2.81</text><text x="268" y="1695" text-anchor="end" font-size="12" fill="#1f2430">nan | post 2009 | 10Y Yield</text><rect x="829.80" y="1683" width="73.60" height="16" fill="#c8553d" rx="2"/><text x="821.80" y="1695" text-anchor="end" font-size="12" fill="#1f2430">-5.20</text><text x="268" y="1719" text-anchor="end" font-size="12" fill="#1f2430">nan | post 2014 | 10Y Term Premium</text><rect x="873.68" y="1707" width="29.72" height="16" fill="#c8553d" rx="2"/><text x="865.68" y="1719" text-anchor="end" font-size="12" fill="#1f2430">-2.10</text><text x="268" y="1743" text-anchor="end" font-size="12" fill="#1f2430">nan | post 2014 | 10Y Yield</text><rect x="848.57" y="1731" width="54.83" height="16" fill="#c8553d" rx="2"/><text x="840.57" y="1743" text-anchor="end" font-size="12" fill="#1f2430">-3.87</text><text x="268" y="1767" text-anchor="end" font-size="12" fill="#1f2430">nan | post 2020 | 10Y Term Premium</text><rect x="874.74" y="1755" width="28.66" height="16" fill="#c8553d" rx="2"/><text x="866.74" y="1767" text-anchor="end" font-size="12" fill="#1f2430">-2.03</text><text x="268" y="1791" text-anchor="end" font-size="12" fill="#1f2430">nan | post 2020 | 10Y Yield</text><rect x="850.64" y="1779" width="52.76" height="16" fill="#c8553d" rx="2"/><text x="842.64" y="1791" text-anchor="end" font-size="12" fill="#1f2430">-3.73</text><text x="268" y="1815" text-anchor="end" font-size="12" fill="#1f2430">nan | exclude debt limit | 10Y Term Premium</text><rect x="850.77" y="1803" width="52.63" height="16" fill="#c8553d" rx="2"/><text x="842.77" y="1815" text-anchor="end" font-size="12" fill="#1f2430">-3.72</text><text x="268" y="1839" text-anchor="end" font-size="12" fill="#1f2430">nan | exclude debt limit | 10Y Yield</text><rect x="803.68" y="1827" width="99.72" height="16" fill="#c8553d" rx="2"/><text x="795.68" y="1839" text-anchor="end" font-size="12" fill="#1f2430">-7.05</text><text x="268" y="1863" text-anchor="end" font-size="12" fill="#1f2430">nan | post 2009 | 10Y Term Premium</text><rect x="903.40" y="1851" width="11.51" height="16" fill="#1d3557" rx="2"/><text x="922.91" y="1863" text-anchor="start" font-size="12" fill="#1f2430">0.81</text><text x="268" y="1887" text-anchor="end" font-size="12" fill="#1f2430">nan | post 2009 | 10Y Yield</text><rect x="903.40" y="1875" width="20.60" height="16" fill="#1d3557" rx="2"/><text x="932.00" y="1887" text-anchor="start" font-size="12" fill="#1f2430">1.46</text><text x="268" y="1911" text-anchor="end" font-size="12" fill="#1f2430">nan | post 2014 | 10Y Term Premium</text><rect x="888.42" y="1899" width="14.98" height="16" fill="#c8553d" rx="2"/><text x="880.42" y="1911" text-anchor="end" font-size="12" fill="#1f2430">-1.06</text><text x="268" y="1935" text-anchor="end" font-size="12" fill="#1f2430">nan | post 2014 | 10Y Yield</text><rect x="877.43" y="1923" width="25.97" height="16" fill="#c8553d" rx="2"/><text x="869.43" y="1935" text-anchor="end" font-size="12" fill="#1f2430">-1.84</text><text x="268" y="1959" text-anchor="end" font-size="12" fill="#1f2430">nan | post 2020 | 10Y Term Premium</text><rect x="897.22" y="1947" width="6.18" height="16" fill="#c8553d" rx="2"/><text x="889.22" y="1959" text-anchor="end" font-size="12" fill="#1f2430">-0.44</text><text x="268" y="1983" text-anchor="end" font-size="12" fill="#1f2430">nan | post 2020 | 10Y Yield</text><rect x="892.23" y="1971" width="11.17" height="16" fill="#c8553d" rx="2"/><text x="884.23" y="1983" text-anchor="end" font-size="12" fill="#1f2430">-0.79</text><text x="268" y="2007" text-anchor="end" font-size="12" fill="#1f2430">nan | exclude debt limit | 10Y Term Premium</text><rect x="903.40" y="1995" width="8.62" height="16" fill="#1d3557" rx="2"/><text x="920.02" y="2007" text-anchor="start" font-size="12" fill="#1f2430">0.61</text><text x="268" y="2031" text-anchor="end" font-size="12" fill="#1f2430">nan | exclude debt limit | 10Y Yield</text><rect x="903.40" y="2019" width="15.51" height="16" fill="#1d3557" rx="2"/><text x="926.91" y="2031" text-anchor="start" font-size="12" fill="#1f2430">1.10</text><text x="268" y="2055" text-anchor="end" font-size="12" fill="#1f2430">nan | post 2009 | 10Y Term Premium</text><rect x="880.00" y="2043" width="23.40" height="16" fill="#c8553d" rx="2"/><text x="872.00" y="2055" text-anchor="end" font-size="12" fill="#1f2430">-1.65</text><text x="268" y="2079" text-anchor="end" font-size="12" fill="#1f2430">nan | post 2009 | 10Y Yield</text><rect x="868.27" y="2067" width="35.13" height="16" fill="#c8553d" rx="2"/><text x="860.27" y="2079" text-anchor="end" font-size="12" fill="#1f2430">-2.48</text><text x="268" y="2103" text-anchor="end" font-size="12" fill="#1f2430">nan | post 2014 | 10Y Term Premium</text><rect x="763.05" y="2091" width="140.35" height="16" fill="#c8553d" rx="2"/><text x="755.05" y="2103" text-anchor="end" font-size="12" fill="#1f2430">-9.92</text><text x="268" y="2127" text-anchor="end" font-size="12" fill="#1f2430">nan | post 2014 | 10Y Yield</text><rect x="665.35" y="2115" width="238.05" height="16" fill="#c8553d" rx="2"/><text x="657.35" y="2127" text-anchor="end" font-size="12" fill="#1f2430">-16.82</text><text x="268" y="2151" text-anchor="end" font-size="12" fill="#1f2430">nan | post 2020 | 10Y Term Premium</text><rect x="892.42" y="2139" width="10.98" height="16" fill="#c8553d" rx="2"/><text x="884.42" y="2151" text-anchor="end" font-size="12" fill="#1f2430">-0.78</text><text x="268" y="2175" text-anchor="end" font-size="12" fill="#1f2430">nan | post 2020 | 10Y Yield</text><rect x="881.91" y="2163" width="21.49" height="16" fill="#c8553d" rx="2"/><text x="873.91" y="2175" text-anchor="end" font-size="12" fill="#1f2430">-1.52</text><text x="268" y="2199" text-anchor="end" font-size="12" fill="#1f2430">nan | exclude debt limit | 10Y Term Premium</text><rect x="580.57" y="2187" width="322.83" height="16" fill="#c8553d" rx="2"/><text x="572.57" y="2199" text-anchor="end" font-size="12" fill="#1f2430">-22.81</text><text x="268" y="2223" text-anchor="end" font-size="12" fill="#1f2430">nan | exclude debt limit | 10Y Yield</text><rect x="395.52" y="2211" width="507.88" height="16" fill="#c8553d" rx="2"/><text x="387.52" y="2223" text-anchor="end" font-size="12" fill="#1f2430">-35.89</text></svg>