<svg xmlns="http://www.w3.org/2000/svg" width="960" height="2280" viewBox="0 0 960 2280" role="img"><rect width="960" height="2280" fill="#fbfaf5"/><text x="280" y="44" font-size="24" font-weight="700" fill="#1f2430">Pricing Context Coefficients</text><text x="280" y="62" font-size="13" fill="#1f2430">Coefficients are reported in basis points per $100bn on the named input; +63bd is the primary release-level scalar.</text><line x1="902.86" y1="66" x2="902.86" y2="2244" stroke="#1f2430" stroke-width="1.4"/><line x1="280.00" y1="66" x2="280.00" y2="2244" stroke="#d7d2c6" stroke-width="1"/><text x="280.00" y="2268" text-anchor="middle" font-size="12" fill="#1f2430">-44.1</text><line x1="441.00" y1="66" x2="441.00" y2="2244" stroke="#d7d2c6" stroke-width="1"/><text x="441.00" y="2268" text-anchor="middle" font-size="12" fill="#1f2430">-32.7</text><line x1="602.00" y1="66" x2="602.00" y2="2244" stroke="#d7d2c6" stroke-width="1"/><text x="602.00" y="2268" text-anchor="middle" font-size="12" fill="#1f2430">-21.3</text><line x1="763.00" y1="66" x2="763.00" y2="2244" stroke="#d7d2c6" stroke-width="1"/><text x="763.00" y="2268" text-anchor="middle" font-size="12" fill="#1f2430">-9.9</text><line x1="924.00" y1="66" x2="924.00" y2="2244" stroke="#d7d2c6" stroke-width="1"/><text x="924.00" y="2268" text-anchor="middle" font-size="12" fill="#1f2430">1.5</text><text x="268" y="87" text-anchor="end" font-size="12" fill="#1f2430">Release flow (+1bd) | 10Y Term Premium</text><rect x="902.29" y="75" width="1.00" height="16" fill="#c8553d" rx="2"/><text x="894.29" y="87" text-anchor="end" font-size="12" fill="#1f2430">-0.04</text><text x="268" y="111" text-anchor="end" font-size="12" fill="#1f2430">Release flow (+1bd) | 10Y Yield</text><rect x="902.86" y="99" width="1.00" height="16" fill="#1d3557" rx="2"/><text x="911.67" y="111" text-anchor="start" font-size="12" fill="#1f2430">0.06</text><text x="268" y="135" text-anchor="end" font-size="12" fill="#1f2430">Release flow (+5bd) | 10Y Term Premium</text><rect x="899.45" y="123" width="3.41" height="16" fill="#c8553d" rx="2"/><text x="891.45" y="135" text-anchor="end" font-size="12" fill="#1f2430">-0.24</text><text x="268" y="159" text-anchor="end" font-size="12" fill="#1f2430">Release flow (+5bd) | 10Y Yield</text><rect x="895.82" y="147" width="7.03" height="16" fill="#c8553d" rx="2"/><text x="887.82" y="159" text-anchor="end" font-size="12" fill="#1f2430">-0.50</text><text x="268" y="183" text-anchor="end" font-size="12" fill="#1f2430">Release flow (+10bd) | 10Y Term Premium</text><rect x="902.86" y="171" width="1.14" height="16" fill="#1d3557" rx="2"/><text x="911.99" y="183" text-anchor="start" font-size="12" fill="#1f2430">0.08</text><text x="268" y="207" text-anchor="end" font-size="12" fill="#1f2430">Release flow (+10bd) | 10Y Yield</text><rect x="902.86" y="195" width="2.53" height="16" fill="#1d3557" rx="2"/><text x="913.39" y="207" text-anchor="start" font-size="12" fill="#1f2430">0.18</text><text x="268" y="231" text-anchor="end" font-size="12" fill="#1f2430">Release flow (+21bd) | 10Y Term Premium</text><rect x="902.86" y="219" width="2.32" height="16" fill="#1d3557" rx="2"/><text x="913.18" y="231" text-anchor="start" font-size="12" fill="#1f2430">0.16</text><text x="268" y="255" text-anchor="end" font-size="12" fill="#1f2430">Release flow (+21bd) | 10Y Yield</text><rect x="902.86" y="243" width="5.92" height="16" fill="#1d3557" rx="2"/><text x="916.77" y="255" text-anchor="start" font-size="12" fill="#1f2430">0.42</text><text x="268" y="279" text-anchor="end" font-size="12" fill="#1f2430">Release flow (+42bd) | 10Y Term Premium</text><rect x="897.15" y="267" width="5.71" height="16" fill="#c8553d" rx="2"/><text x="889.15" y="279" text-anchor="end" font-size="12" fill="#1f2430">-0.40</text><text x="268" y="303" text-anchor="end" font-size="12" fill="#1f2430">Release flow (+42bd) | 10Y Yield</text><rect x="890.04" y="291" width="12.82" height="16" fill="#c8553d" rx="2"/><text x="882.04" y="303" text-anchor="end" font-size="12" fill="#1f2430">-0.91</text><text x="268" y="327" text-anchor="end" font-size="12" fill="#1f2430">Release flow (+63bd anchor) | 10Y Term Premium</text><rect x="898.49" y="315" width="4.37" height="16" fill="#c8553d" rx="2"/><text x="890.49" y="327" text-anchor="end" font-size="12" fill="#1f2430">-0.31</text><text x="268" y="351" text-anchor="end" font-size="12" fill="#1f2430">Release flow (+63bd anchor) | 10Y Yield</text><rect x="892.27" y="339" width="10.59" height="16" fill="#c8553d" rx="2"/><text x="884.27" y="351" text-anchor="end" font-size="12" fill="#1f2430">-0.75</text><text x="268" y="375" text-anchor="end" font-size="12" fill="#1f2430">Flow baseline | 10Y Term Premium</text><rect x="863.09" y="363" width="39.77" height="16" fill="#c8553d" rx="2"/><text x="855.09" y="375" text-anchor="end" font-size="12" fill="#1f2430">-2.81</text><text x="268" y="399" text-anchor="end" font-size="12" fill="#1f2430">Flow baseline | 10Y Yield</text><rect x="829.13" y="387" width="73.73" height="16" fill="#c8553d" rx="2"/><text x="821.13" y="399" text-anchor="end" font-size="12" fill="#1f2430">-5.22</text><text x="268" y="423" text-anchor="end" font-size="12" fill="#1f2430">Stock baseline | 10Y Term Premium</text><rect x="902.86" y="411" width="11.80" height="16" fill="#1d3557" rx="2"/><text x="922.66" y="423" text-anchor="start" font-size="12" fill="#1f2430">0.83</text><text x="268" y="447" text-anchor="end" font-size="12" fill="#1f2430">Stock baseline | 10Y Yield</text><rect x="902.86" y="435" width="21.14" height="16" fill="#1d3557" rx="2"/><text x="932.00" y="447" text-anchor="start" font-size="12" fill="#1f2430">1.50</text><text x="268" y="471" text-anchor="end" font-size="12" fill="#1f2430">Duration baseline | 10Y Term Premium</text><rect x="534.07" y="459" width="368.79" height="16" fill="#c8553d" rx="2"/><text x="526.07" y="471" text-anchor="end" font-size="12" fill="#1f2430">-26.08</text><text x="268" y="495" text-anchor="end" font-size="12" fill="#1f2430">Duration baseline | 10Y Yield</text><rect x="280.00" y="483" width="622.86" height="16" fill="#c8553d" rx="2"/><text x="272.00" y="495" text-anchor="end" font-size="12" fill="#1f2430">-44.05</text><text x="268" y="519" text-anchor="end" font-size="12" fill="#1f2430">nan | post 2009 | 10Y Term Premium</text><rect x="902.29" y="507" width="1.00" height="16" fill="#c8553d" rx="2"/><text x="894.29" y="519" text-anchor="end" font-size="12" fill="#1f2430">-0.04</text><text x="268" y="543" text-anchor="end" font-size="12" fill="#1f2430">nan | post 2009 | 10Y Yield</text><rect x="902.86" y="531" width="1.00" height="16" fill="#1d3557" rx="2"/><text x="911.67" y="543" text-anchor="start" font-size="12" fill="#1f2430">0.06</text><text x="268" y="567" text-anchor="end" font-size="12" fill="#1f2430">nan | post 2014 | 10Y Term Premium</text><rect x="902.02" y="555" width="1.00" height="16" fill="#c8553d" rx="2"/><text x="894.02" y="567" text-anchor="end" font-size="12" fill="#1f2430">-0.06</text><text x="268" y="591" text-anchor="end" font-size="12" fill="#1f2430">nan | post 2014 | 10Y Yield</text><rect x="902.86" y="579" width="1.00" height="16" fill="#1d3557" rx="2"/><text x="910.96" y="591" text-anchor="start" font-size="12" fill="#1f2430">0.01</text><text x="268" y="615" text-anchor="end" font-size="12" fill="#1f2430">nan | post 2020 | 10Y Term Premium</text><rect x="902.54" y="603" width="1.00" height="16" fill="#c8553d" rx="2"/><text x="894.54" y="615" text-anchor="end" font-size="12" fill="#1f2430">-0.02</text><text x="268" y="639" text-anchor="end" font-size="12" fill="#1f2430">nan | post 2020 | 10Y Yield</text><rect x="902.86" y="627" width="1.38" height="16" fill="#1d3557" rx="2"/><text x="912.24" y="639" text-anchor="start" font-size="12" fill="#1f2430">0.10</text><text x="268" y="663" text-anchor="end" font-size="12" fill="#1f2430">nan | exclude debt limit | 10Y Term Premium</text><rect x="902.86" y="651" width="1.42" height="16" fill="#1d3557" rx="2"/><text x="912.28" y="663" text-anchor="start" font-size="12" fill="#1f2430">0.10</text><text x="268" y="687" text-anchor="end" font-size="12" fill="#1f2430">nan | exclude debt limit | 10Y Yield</text><rect x="902.86" y="675" width="3.68" height="16" fill="#1d3557" rx="2"/><text x="914.54" y="687" text-anchor="start" font-size="12" fill="#1f2430">0.26</text><text x="268" y="711" text-anchor="end" font-size="12" fill="#1f2430">nan | post 2009 | 10Y Term Premium</text><rect x="899.45" y="699" width="3.41" height="16" fill="#c8553d" rx="2"/><text x="891.45" y="711" text-anchor="end" font-size="12" fill="#1f2430">-0.24</text><text x="268" y="735" text-anchor="end" font-size="12" fill="#1f2430">nan | post 2009 | 10Y Yield</text><rect x="895.82" y="723" width="7.03" height="16" fill="#c8553d" rx="2"/><text x="887.82" y="735" text-anchor="end" font-size="12" fill="#1f2430">-0.50</text><text x="268" y="759" text-anchor="end" font-size="12" fill="#1f2430">nan | post 2014 | 10Y Term Premium</text><rect x="898.79" y="747" width="4.07" height="16" fill="#c8553d" rx="2"/><text x="890.79" y="759" text-anchor="end" font-size="12" fill="#1f2430">-0.29</text><text x="268" y="783" text-anchor="end" font-size="12" fill="#1f2430">nan | post 2014 | 10Y Yield</text><rect x="894.02" y="771" width="8.84" height="16" fill="#c8553d" rx="2"/><text x="886.02" y="783" text-anchor="end" font-size="12" fill="#1f2430">-0.63</text><text x="268" y="807" text-anchor="end" font-size="12" fill="#1f2430">nan | post 2020 | 10Y Term Premium</text><rect x="899.80" y="795" width="3.06" height="16" fill="#c8553d" rx="2"/><text x="891.80" y="807" text-anchor="end" font-size="12" fill="#1f2430">-0.22</text><text x="268" y="831" text-anchor="end" font-size="12" fill="#1f2430">nan | post 2020 | 10Y Yield</text><rect x="896.19" y="819" width="6.67" height="16" fill="#c8553d" rx="2"/><text x="888.19" y="831" text-anchor="end" font-size="12" fill="#1f2430">-0.47</text><text x="268" y="855" text-anchor="end" font-size="12" fill="#1f2430">nan | exclude debt limit | 10Y Term Premium</text><rect x="900.45" y="843" width="2.40" height="16" fill="#c8553d" rx="2"/><text x="892.45" y="855" text-anchor="end" font-size="12" fill="#1f2430">-0.17</text><text x="268" y="879" text-anchor="end" font-size="12" fill="#1f2430">nan | exclude debt limit | 10Y Yield</text><rect x="898.20" y="867" width="4.65" height="16" fill="#c8553d" rx="2"/><text x="890.20" y="879" text-anchor="end" font-size="12" fill="#1f2430">-0.33</text><text x="268" y="903" text-anchor="end" font-size="12" fill="#1f2430">nan | post 2009 | 10Y Term Premium</text><rect x="902.86" y="891" width="1.14" height="16" fill="#1d3557" rx="2"/><text x="911.99" y="903" text-anchor="start" font-size="12" fill="#1f2430">0.08</text><text x="268" y="927" text-anchor="end" font-size="12" fill="#1f2430">nan | post 2009 | 10Y Yield</text><rect x="902.86" y="915" width="2.53" height="16" fill="#1d3557" rx="2"/><text x="913.39" y="927" text-anchor="start" font-size="12" fill="#1f2430">0.18</text><text x="268" y="951" text-anchor="end" font-size="12" fill="#1f2430">nan | post 2014 | 10Y Term Premium</text><rect x="902.86" y="939" width="1.00" height="16" fill="#1d3557" rx="2"/><text x="911.21" y="951" text-anchor="start" font-size="12" fill="#1f2430">0.02</text><text x="268" y="975" text-anchor="end" font-size="12" fill="#1f2430">nan | post 2014 | 10Y Yield</text><rect x="902.86" y="963" width="1.00" height="16" fill="#1d3557" rx="2"/><text x="911.48" y="975" text-anchor="start" font-size="12" fill="#1f2430">0.04</text><text x="268" y="999" text-anchor="end" font-size="12" fill="#1f2430">nan | post 2020 | 10Y Term Premium</text><rect x="902.86" y="987" width="1.00" height="16" fill="#1d3557" rx="2"/><text x="911.55" y="999" text-anchor="start" font-size="12" fill="#1f2430">0.05</text><text x="268" y="1023" text-anchor="end" font-size="12" fill="#1f2430">nan | post 2020 | 10Y Yield</text><rect x="902.86" y="1011" width="1.60" height="16" fill="#1d3557" rx="2"/><text x="912.46" y="1023" text-anchor="start" font-size="12" fill="#1f2430">0.11</text><text x="268" y="1047" text-anchor="end" font-size="12" fill="#1f2430">nan | exclude debt limit | 10Y Term Premium</text><rect x="901.91" y="1035" width="1.00" height="16" fill="#c8553d" rx="2"/><text x="893.91" y="1047" text-anchor="end" font-size="12" fill="#1f2430">-0.07</text><text x="268" y="1071" text-anchor="end" font-size="12" fill="#1f2430">nan | exclude debt limit | 10Y Yield</text><rect x="901.81" y="1059" width="1.05" height="16" fill="#c8553d" rx="2"/><text x="893.81" y="1071" text-anchor="end" font-size="12" fill="#1f2430">-0.07</text><text x="268" y="1095" text-anchor="end" font-size="12" fill="#1f2430">nan | post 2009 | 10Y Term Premium</text><rect x="902.86" y="1083" width="2.32" height="16" fill="#1d3557" rx="2"/><text x="913.18" y="1095" text-anchor="start" font-size="12" fill="#1f2430">0.16</text><text x="268" y="1119" text-anchor="end" font-size="12" fill="#1f2430">nan | post 2009 | 10Y Yield</text><rect x="902.86" y="1107" width="5.92" height="16" fill="#1d3557" rx="2"/><text x="916.77" y="1119" text-anchor="start" font-size="12" fill="#1f2430">0.42</text><text x="268" y="1143" text-anchor="end" font-size="12" fill="#1f2430">nan | post 2014 | 10Y Term Premium</text><rect x="902.86" y="1131" width="1.63" height="16" fill="#1d3557" rx="2"/><text x="912.49" y="1143" text-anchor="start" font-size="12" fill="#1f2430">0.12</text><text x="268" y="1167" text-anchor="end" font-size="12" fill="#1f2430">nan | post 2014 | 10Y Yield</text><rect x="902.86" y="1155" width="4.58" height="16" fill="#1d3557" rx="2"/><text x="915.44" y="1167" text-anchor="start" font-size="12" fill="#1f2430">0.32</text><text x="268" y="1191" text-anchor="end" font-size="12" fill="#1f2430">nan | post 2020 | 10Y Term Premium</text><rect x="902.86" y="1179" width="1.00" height="16" fill="#1d3557" rx="2"/><text x="911.43" y="1191" text-anchor="start" font-size="12" fill="#1f2430">0.04</text><text x="268" y="1215" text-anchor="end" font-size="12" fill="#1f2430">nan | post 2020 | 10Y Yield</text><rect x="902.86" y="1203" width="2.79" height="16" fill="#1d3557" rx="2"/><text x="913.65" y="1215" text-anchor="start" font-size="12" fill="#1f2430">0.20</text><text x="268" y="1239" text-anchor="end" font-size="12" fill="#1f2430">nan | exclude debt limit | 10Y Term Premium</text><rect x="902.86" y="1227" width="1.97" height="16" fill="#1d3557" rx="2"/><text x="912.83" y="1239" text-anchor="start" font-size="12" fill="#1f2430">0.14</text><text x="268" y="1263" text-anchor="end" font-size="12" fill="#1f2430">nan | exclude debt limit | 10Y Yield</text><rect x="902.86" y="1251" width="6.87" height="16" fill="#1d3557" rx="2"/><text x="917.72" y="1263" text-anchor="start" font-size="12" fill="#1f2430">0.49</text><text x="268" y="1287" text-anchor="end" font-size="12" fill="#1f2430">nan | post 2009 | 10Y Term Premium</text><rect x="897.15" y="1275" width="5.71" height="16" fill="#c8553d" rx="2"/><text x="889.15" y="1287" text-anchor="end" font-size="12" fill="#1f2430">-0.40</text><text x="268" y="1311" text-anchor="end" font-size="12" fill="#1f2430">nan | post 2009 | 10Y Yield</text><rect x="890.04" y="1299" width="12.82" height="16" fill="#c8553d" rx="2"/><text x="882.04" y="1311" text-anchor="end" font-size="12" fill="#1f2430">-0.91</text><text x="268" y="1335" text-anchor="end" font-size="12" fill="#1f2430">nan | post 2014 | 10Y Term Premium</text><rect x="897.38" y="1323" width="5.47" height="16" fill="#c8553d" rx="2"/><text x="889.38" y="1335" text-anchor="end" font-size="12" fill="#1f2430">-0.39</text><text x="268" y="1359" text-anchor="end" font-size="12" fill="#1f2430">nan | post 2014 | 10Y Yield</text><rect x="889.69" y="1347" width="13.17" height="16" fill="#c8553d" rx="2"/><text x="881.69" y="1359" text-anchor="end" font-size="12" fill="#1f2430">-0.93</text><text x="268" y="1383" text-anchor="end" font-size="12" fill="#1f2430">nan | post 2020 | 10Y Term Premium</text><rect x="888.19" y="1371" width="14.67" height="16" fill="#c8553d" rx="2"/><text x="880.19" y="1383" text-anchor="end" font-size="12" fill="#1f2430">-1.04</text><text x="268" y="1407" text-anchor="end" font-size="12" fill="#1f2430">nan | post 2020 | 10Y Yield</text><rect x="870.97" y="1395" width="31.89" height="16" fill="#c8553d" rx="2"/><text x="862.97" y="1407" text-anchor="end" font-size="12" fill="#1f2430">-2.26</text><text x="268" y="1431" text-anchor="end" font-size="12" fill="#1f2430">nan | exclude debt limit | 10Y Term Premium</text><rect x="888.70" y="1419" width="14.16" height="16" fill="#c8553d" rx="2"/><text x="880.70" y="1431" text-anchor="end" font-size="12" fill="#1f2430">-1.00</text><text x="268" y="1455" text-anchor="end" font-size="12" fill="#1f2430">nan | exclude debt limit | 10Y Yield</text><rect x="874.12" y="1443" width="28.74" height="16" fill="#c8553d" rx="2"/><text x="866.12" y="1455" text-anchor="end" font-size="12" fill="#1f2430">-2.03</text><text x="268" y="1479" text-anchor="end" font-size="12" fill="#1f2430">nan | post 2009 | 10Y Term Premium</text><rect x="898.49" y="1467" width="4.37" height="16" fill="#c8553d" rx="2"/><text x="890.49" y="1479" text-anchor="end" font-size="12" fill="#1f2430">-0.31</text><text x="268" y="1503" text-anchor="end" font-size="12" fill="#1f2430">nan | post 2009 | 10Y Yield</text><rect x="892.27" y="1491" width="10.59" height="16" fill="#c8553d" rx="2"/><text x="884.27" y="1503" text-anchor="end" font-size="12" fill="#1f2430">-0.75</text><text x="268" y="1527" text-anchor="end" font-size="12" fill="#1f2430">nan | post 2014 | 10Y Term Premium</text><rect x="897.09" y="1515" width="5.76" height="16" fill="#c8553d" rx="2"/><text x="889.09" y="1527" text-anchor="end" font-size="12" fill="#1f2430">-0.41</text><text x="268" y="1551" text-anchor="end" font-size="12" fill="#1f2430">nan | post 2014 | 10Y Yield</text><rect x="889.96" y="1539" width="12.90" height="16" fill="#c8553d" rx="2"/><text x="881.96" y="1551" text-anchor="end" font-size="12" fill="#1f2430">-0.91</text><text x="268" y="1575" text-anchor="end" font-size="12" fill="#1f2430">nan | post 2020 | 10Y Term Premium</text><rect x="891.46" y="1563" width="11.40" height="16" fill="#c8553d" rx="2"/><text x="883.46" y="1575" text-anchor="end" font-size="12" fill="#1f2430">-0.81</text><text x="268" y="1599" text-anchor="end" font-size="12" fill="#1f2430">nan | post 2020 | 10Y Yield</text><rect x="878.09" y="1587" width="24.77" height="16" fill="#c8553d" rx="2"/><text x="870.09" y="1599" text-anchor="end" font-size="12" fill="#1f2430">-1.75</text><text x="268" y="1623" text-anchor="end" font-size="12" fill="#1f2430">nan | exclude debt limit | 10Y Term Premium</text><rect x="892.67" y="1611" width="10.19" height="16" fill="#c8553d" rx="2"/><text x="884.67" y="1623" text-anchor="end" font-size="12" fill="#1f2430">-0.72</text><text x="268" y="1647" text-anchor="end" font-size="12" fill="#1f2430">nan | exclude debt limit | 10Y Yield</text><rect x="880.59" y="1635" width="22.27" height="16" fill="#c8553d" rx="2"/><text x="872.59" y="1647" text-anchor="end" font-size="12" fill="#1f2430">-1.58</text><text x="268" y="1671" text-anchor="end" font-size="12" fill="#1f2430">nan | post 2009 | 10Y Term Premium</text><rect x="863.09" y="1659" width="39.77" height="16" fill="#c8553d" rx="2"/><text x="855.09" y="1671" text-anchor="end" font-size="12" fill="#1f2430">-2.81</text><text x="268" y="1695" text-anchor="end" font-size="12" fill="#1f2430">nan | post 2009 | 10Y Yield</text><rect x="829.13" y="1683" width="73.73" height="16" fill="#c8553d" rx="2"/><text x="821.13" y="1695" text-anchor="end" font-size="12" fill="#1f2430">-5.22</text><text x="268" y="1719" text-anchor="end" font-size="12" fill="#1f2430">nan | post 2014 | 10Y Term Premium</text><rect x="873.03" y="1707" width="29.83" height="16" fill="#c8553d" rx="2"/><text x="865.03" y="1719" text-anchor="end" font-size="12" fill="#1f2430">-2.11</text><text x="268" y="1743" text-anchor="end" font-size="12" fill="#1f2430">nan | post 2014 | 10Y Yield</text><rect x="847.83" y="1731" width="55.03" height="16" fill="#c8553d" rx="2"/><text x="839.83" y="1743" text-anchor="end" font-size="12" fill="#1f2430">-3.89</text><text x="268" y="1767" text-anchor="end" font-size="12" fill="#1f2430">nan | post 2020 | 10Y Term Premium</text><rect x="874.01" y="1755" width="28.85" height="16" fill="#c8553d" rx="2"/><text x="866.01" y="1767" text-anchor="end" font-size="12" fill="#1f2430">-2.04</text><text x="268" y="1791" text-anchor="end" font-size="12" fill="#1f2430">nan | post 2020 | 10Y Yield</text><rect x="849.74" y="1779" width="53.11" height="16" fill="#c8553d" rx="2"/><text x="841.74" y="1791" text-anchor="end" font-size="12" fill="#1f2430">-3.76</text><text x="268" y="1815" text-anchor="end" font-size="12" fill="#1f2430">nan | exclude debt limit | 10Y Term Premium</text><rect x="850.31" y="1803" width="52.54" height="16" fill="#c8553d" rx="2"/><text x="842.31" y="1815" text-anchor="end" font-size="12" fill="#1f2430">-3.72</text><text x="268" y="1839" text-anchor="end" font-size="12" fill="#1f2430">nan | exclude debt limit | 10Y Yield</text><rect x="803.31" y="1827" width="99.55" height="16" fill="#c8553d" rx="2"/><text x="795.31" y="1839" text-anchor="end" font-size="12" fill="#1f2430">-7.04</text><text x="268" y="1863" text-anchor="end" font-size="12" fill="#1f2430">nan | post 2009 | 10Y Term Premium</text><rect x="902.86" y="1851" width="11.80" height="16" fill="#1d3557" rx="2"/><text x="922.66" y="1863" text-anchor="start" font-size="12" fill="#1f2430">0.83</text><text x="268" y="1887" text-anchor="end" font-size="12" fill="#1f2430">nan | post 2009 | 10Y Yield</text><rect x="902.86" y="1875" width="21.14" height="16" fill="#1d3557" rx="2"/><text x="932.00" y="1887" text-anchor="start" font-size="12" fill="#1f2430">1.50</text><text x="268" y="1911" text-anchor="end" font-size="12" fill="#1f2430">nan | post 2014 | 10Y Term Premium</text><rect x="888.77" y="1899" width="14.09" height="16" fill="#c8553d" rx="2"/><text x="880.77" y="1911" text-anchor="end" font-size="12" fill="#1f2430">-1.00</text><text x="268" y="1935" text-anchor="end" font-size="12" fill="#1f2430">nan | post 2014 | 10Y Yield</text><rect x="878.50" y="1923" width="24.35" height="16" fill="#c8553d" rx="2"/><text x="870.50" y="1935" text-anchor="end" font-size="12" fill="#1f2430">-1.72</text><text x="268" y="1959" text-anchor="end" font-size="12" fill="#1f2430">nan | post 2020 | 10Y Term Premium</text><rect x="897.76" y="1947" width="5.10" height="16" fill="#c8553d" rx="2"/><text x="889.76" y="1959" text-anchor="end" font-size="12" fill="#1f2430">-0.36</text><text x="268" y="1983" text-anchor="end" font-size="12" fill="#1f2430">nan | post 2020 | 10Y Yield</text><rect x="893.68" y="1971" width="9.18" height="16" fill="#c8553d" rx="2"/><text x="885.68" y="1983" text-anchor="end" font-size="12" fill="#1f2430">-0.65</text><text x="268" y="2007" text-anchor="end" font-size="12" fill="#1f2430">nan | exclude debt limit | 10Y Term Premium</text><rect x="902.86" y="1995" width="9.08" height="16" fill="#1d3557" rx="2"/><text x="919.93" y="2007" text-anchor="start" font-size="12" fill="#1f2430">0.64</text><text x="268" y="2031" text-anchor="end" font-size="12" fill="#1f2430">nan | exclude debt limit | 10Y Yield</text><rect x="902.86" y="2019" width="16.36" height="16" fill="#1d3557" rx="2"/><text x="927.22" y="2031" text-anchor="start" font-size="12" fill="#1f2430">1.16</text><text x="268" y="2055" text-anchor="end" font-size="12" fill="#1f2430">nan | post 2009 | 10Y Term Premium</text><rect x="879.64" y="2043" width="23.22" height="16" fill="#c8553d" rx="2"/><text x="871.64" y="2055" text-anchor="end" font-size="12" fill="#1f2430">-1.64</text><text x="268" y="2079" text-anchor="end" font-size="12" fill="#1f2430">nan | post 2009 | 10Y Yield</text><rect x="867.76" y="2067" width="35.10" height="16" fill="#c8553d" rx="2"/><text x="859.76" y="2079" text-anchor="end" font-size="12" fill="#1f2430">-2.48</text><text x="268" y="2103" text-anchor="end" font-size="12" fill="#1f2430">nan | post 2014 | 10Y Term Premium</text><rect x="762.72" y="2091" width="140.14" height="16" fill="#c8553d" rx="2"/><text x="754.72" y="2103" text-anchor="end" font-size="12" fill="#1f2430">-9.91</text><text x="268" y="2127" text-anchor="end" font-size="12" fill="#1f2430">nan | post 2014 | 10Y Yield</text><rect x="665.02" y="2115" width="237.84" height="16" fill="#c8553d" rx="2"/><text x="657.02" y="2127" text-anchor="end" font-size="12" fill="#1f2430">-16.82</text><text x="268" y="2151" text-anchor="end" font-size="12" fill="#1f2430">nan | post 2020 | 10Y Term Premium</text><rect x="891.86" y="2139" width="10.99" height="16" fill="#c8553d" rx="2"/><text x="883.86" y="2151" text-anchor="end" font-size="12" fill="#1f2430">-0.78</text><text x="268" y="2175" text-anchor="end" font-size="12" fill="#1f2430">nan | post 2020 | 10Y Yield</text><rect x="881.38" y="2163" width="21.47" height="16" fill="#c8553d" rx="2"/><text x="873.38" y="2175" text-anchor="end" font-size="12" fill="#1f2430">-1.52</text><text x="268" y="2199" text-anchor="end" font-size="12" fill="#1f2430">nan | exclude debt limit | 10Y Term Premium</text><rect x="580.58" y="2187" width="322.27" height="16" fill="#c8553d" rx="2"/><text x="572.58" y="2199" text-anchor="end" font-size="12" fill="#1f2430">-22.79</text><text x="268" y="2223" text-anchor="end" font-size="12" fill="#1f2430">nan | exclude debt limit | 10Y Yield</text><rect x="395.42" y="2211" width="507.44" height="16" fill="#c8553d" rx="2"/><text x="387.42" y="2223" text-anchor="end" font-size="12" fill="#1f2430">-35.89</text></svg>