<svg xmlns="http://www.w3.org/2000/svg" width="960" height="264" viewBox="0 0 960 264" role="img"><rect width="960" height="264" fill="#fbfaf5"/><text x="280" y="44" font-size="24" font-weight="700" fill="#1f2430">Scenario Translation</text><text x="280" y="62" font-size="13" fill="#1f2430">Implied basis-point change using the matching baseline coefficient.</text><line x1="754.19" y1="66" x2="754.19" y2="228" stroke="#1f2430" stroke-width="1.4"/><line x1="280.00" y1="66" x2="280.00" y2="228" stroke="#d7d2c6" stroke-width="1"/><text x="280.00" y="252" text-anchor="middle" font-size="12" fill="#1f2430">-40.7</text><line x1="441.00" y1="66" x2="441.00" y2="228" stroke="#d7d2c6" stroke-width="1"/><text x="441.00" y="252" text-anchor="middle" font-size="12" fill="#1f2430">-26.8</text><line x1="602.00" y1="66" x2="602.00" y2="228" stroke="#d7d2c6" stroke-width="1"/><text x="602.00" y="252" text-anchor="middle" font-size="12" fill="#1f2430">-13.0</text><line x1="763.00" y1="66" x2="763.00" y2="228" stroke="#d7d2c6" stroke-width="1"/><text x="763.00" y="252" text-anchor="middle" font-size="12" fill="#1f2430">0.8</text><line x1="924.00" y1="66" x2="924.00" y2="228" stroke="#d7d2c6" stroke-width="1"/><text x="924.00" y="252" text-anchor="middle" font-size="12" fill="#1f2430">14.6</text><text x="268" y="87" text-anchor="end" font-size="12" fill="#1f2430">Plus $100bn Public Duration Supply shock | supporting | 10Y Term Premium</text><rect x="471.13" y="75" width="283.06" height="16" fill="#c8553d" rx="2"/><text x="463.13" y="87" text-anchor="end" font-size="12" fill="#1f2430">-24.27</text><text x="268" y="111" text-anchor="end" font-size="12" fill="#1f2430">Plus $100bn Public Duration Supply shock | supporting | 10Y Yield</text><rect x="280.00" y="99" width="474.19" height="16" fill="#c8553d" rx="2"/><text x="272.00" y="111" text-anchor="end" font-size="12" fill="#1f2430">-40.65</text><text x="268" y="135" text-anchor="end" font-size="12" fill="#1f2430">Plus $500bn term-out translation via Excess Bills Stock | illustrative only | 10Y Term Premium</text><rect x="754.19" y="123" width="47.45" height="16" fill="#1d3557" rx="2"/><text x="809.64" y="135" text-anchor="start" font-size="12" fill="#1f2430">4.07</text><text x="268" y="159" text-anchor="end" font-size="12" fill="#1f2430">Plus $500bn term-out translation via Excess Bills Stock | illustrative only | 10Y Yield</text><rect x="754.19" y="147" width="84.90" height="16" fill="#1d3557" rx="2"/><text x="847.10" y="159" text-anchor="start" font-size="12" fill="#1f2430">7.28</text><text x="268" y="183" text-anchor="end" font-size="12" fill="#1f2430">Plus $1000bn term-out translation via Excess Bills Stock | illustrative only | 10Y Term Premium</text><rect x="754.19" y="171" width="94.89" height="16" fill="#1d3557" rx="2"/><text x="857.08" y="183" text-anchor="start" font-size="12" fill="#1f2430">8.13</text><text x="268" y="207" text-anchor="end" font-size="12" fill="#1f2430">Plus $1000bn term-out translation via Excess Bills Stock | illustrative only | 10Y Yield</text><rect x="754.19" y="195" width="169.81" height="16" fill="#1d3557" rx="2"/><text x="932.00" y="207" text-anchor="start" font-size="12" fill="#1f2430">14.56</text></svg>